<?xml version="1.0" encoding="utf-8"?>
<!-- Generator: Adobe Illustrator 16.0.0, SVG Export Plug-In . SVG Version: 6.00 Build 0)  -->
<!DOCTYPE svg PUBLIC "-//W3C//DTD SVG 1.1//EN" "http://www.w3.org/Graphics/SVG/1.1/DTD/svg11.dtd">
<svg version="1.1" id="Capa_1" xmlns="http://www.w3.org/2000/svg" xmlns:xlink="http://www.w3.org/1999/xlink" x="0px" y="0px"
	 width="64px" height="64px" viewBox="0 0 64 64" style="enable-background:new 0 0 64 64;" xml:space="preserve">
<style type="text/css">
<![CDATA[
	.st0{fill:#8E8D8D;}
	.st1{fill:none;stroke:#8E8D8D;stroke-width:4;stroke-miterlimit:10;}
]]>
</style>
<g>
	<path class="st0" d="M42.9,5.8c-3.1,4.3-5.5,9.6-5.5,15.2c0,5.7,1.5,10.9,4.5,15.2V63h4V40.6V8.5V1.4C45,2.7,44.1,4.2,42.9,5.8z"/>
	<path class="st0" d="M26,1v14c0,0.6-0.4,1-1,1s-1-0.4-1-1V1h-1v14c0,0.6-0.4,1-1,1s-1-0.4-1-1V1h-1v14c0,0.6-0.4,1-1,1s-1-0.4-1-1
		V1h-1v14v1v1v3c0,1.9,2,3.4,3,3.9V63h4V23.9c2-0.4,3-2,3-3.9v-3v-1v-1V1H26z"/>
</g>
</svg>
