<?xml version="1.0" encoding="utf-8"?>
<!-- Generator: Adobe Illustrator 16.0.0, SVG Export Plug-In . SVG Version: 6.00 Build 0)  -->
<!DOCTYPE svg PUBLIC "-//W3C//DTD SVG 1.1//EN" "http://www.w3.org/Graphics/SVG/1.1/DTD/svg11.dtd">
<svg version="1.1" id="Capa_1" xmlns="http://www.w3.org/2000/svg" xmlns:xlink="http://www.w3.org/1999/xlink" x="0px" y="0px"
	 width="64px" height="64px" viewBox="0 0 64 64" style="enable-background:new 0 0 64 64;" xml:space="preserve">
<style type="text/css">
<![CDATA[
	.st0{fill:#8E8D8D;}
	.st1{fill:none;stroke:#8E8D8D;stroke-width:4;stroke-miterlimit:10;}
]]>
</style>
<g>
	<circle class="st0" cx="45" cy="5" r="4.5"/>
	<path class="st0" d="M49,29.7l2.8-11.3C53,15.3,51.3,13,48,13h-6c-3.3,0-5,2.3-3.8,5.4L41,29.7L35,45h7l1,19h4l1-19h7L49,29.7z"/>
	<circle class="st0" cx="18" cy="5" r="4.5"/>
	<path class="st0" d="M23,13H13c-1.7,0-3,1.3-3,3v20c0,1.7,1.3,3,3,3v25h4V39h2v25h4V39c1.7,0,3-1.3,3-3V16C26,14.3,24.7,13,23,13z"
		/>
</g>
</svg>
