<?xml version="1.0" encoding="utf-8"?>
<!-- Generator: Adobe Illustrator 19.2.1, SVG Export Plug-In . SVG Version: 6.00 Build 0)  -->
<svg version="1.1" id="Ebene_2" xmlns="http://www.w3.org/2000/svg" xmlns:xlink="http://www.w3.org/1999/xlink" x="0px" y="0px"
	 viewBox="0 0 2140.1 1819.8" style="enable-background:new 0 0 2140.1 1819.8;" xml:space="preserve">
<style type="text/css">
	.st0{fill:none;stroke:#A6A9AA;stroke-linecap:round;stroke-linejoin:round;stroke-miterlimit:10;}
	.st1{fill:none;stroke:#74787A;stroke-linecap:round;stroke-linejoin:round;stroke-miterlimit:10;}
	.st2{fill:none;stroke:#74787A;stroke-linecap:round;stroke-miterlimit:10;}
	.st3{fill:none;stroke:#74787A;stroke-miterlimit:10;}
	.st4{fill:none;stroke:#454849;stroke-miterlimit:10;}
	.st5{fill:none;stroke:#000000;stroke-width:3;stroke-miterlimit:10;}
	.st6{fill:none;stroke:#727272;stroke-width:3;stroke-miterlimit:10;}
	.st7{fill:none;stroke:#4C4C4C;stroke-width:2;stroke-miterlimit:10;}
	.st8{fill:none;stroke:#262626;stroke-width:3;stroke-miterlimit:10;}
	.st9{fill:none;stroke:#000000;stroke-width:1.5;stroke-miterlimit:10;}
	.st10{fill:none;stroke:#000000;stroke-miterlimit:10;}
</style>
<g>
	<line class="st0" x1="1820.8" y1="761.4" x2="1867.5" y2="862.4"/>
	<line class="st0" x1="1812.9" y1="765.4" x2="1858.8" y2="866.4"/>
	<line class="st0" x1="1804.9" y1="769.1" x2="1850.8" y2="870"/>
	<line class="st0" x1="1796.8" y1="773" x2="1842.6" y2="873.8"/>
	<line class="st0" x1="1789.4" y1="776.6" x2="1835.1" y2="877.1"/>
	<line class="st0" x1="1781.5" y1="780.4" x2="1827.2" y2="880.8"/>
	<line class="st0" x1="1774.2" y1="783.9" x2="1819.8" y2="884.1"/>
	<line class="st0" x1="1767.4" y1="787.2" x2="1812.8" y2="887.2"/>
	<line class="st0" x1="1759.2" y1="791.1" x2="1804.6" y2="891"/>
	<line class="st0" x1="1755.1" y1="793.1" x2="1820.8" y2="761.4"/>
	<line class="st0" x1="1805.3" y1="759.5" x2="1751.1" y2="784.5"/>
	<line class="st0" x1="1751.1" y1="784.5" x2="1755.1" y2="793.1"/>
	<line class="st0" x1="1820.8" y1="761.4" x2="1791.1" y2="697.2"/>
	<line class="st0" x1="1783.1" y1="710.1" x2="1805.3" y2="759.5"/>
	<line class="st0" x1="1791.1" y1="697.2" x2="1633.8" y2="767"/>
	<line class="st0" x1="1637.6" y1="775.2" x2="1783.1" y2="710.1"/>
	<line class="st0" x1="1803.9" y1="901" x2="1860.9" y2="875.4"/>
	<line class="st0" x1="1868.2" y1="862.1" x2="1911.4" y2="955.5"/>
	<line class="st0" x1="1860.9" y1="875.4" x2="1900.6" y2="958.9"/>
	<line class="st0" x1="1800.5" y1="892.9" x2="1803.9" y2="901"/>
	<line class="st0" x1="1800.5" y1="892.9" x2="1868.2" y2="862.1"/>
	<line class="st1" x1="844.2" y1="856" x2="926.8" y2="1031.3"/>
	<polyline class="st1" points="897.7,831.2 769.2,890.8 732.9,812 	"/>
	<line class="st2" x1="880.2" y1="839.3" x2="962.7" y2="1014.3"/>
	<line class="st1" x1="897.7" y1="831.2" x2="980.7" y2="1005.9"/>
	<line class="st1" x1="862.5" y1="848.3" x2="944.8" y2="1022.8"/>
	<path class="st1" d="M926.8,1031.2c21.1,44.8,71.4,68.1,119.2,55.3"/>
	<path class="st1" d="M962.7,1014.3c13,27.5,43.7,41.8,73.1,33.9"/>
	<path class="st1" d="M944.8,1022.8c17.1,36.2,57.5,54.9,96.2,44.6"/>
	<path class="st1" d="M980.7,1005.9c8.9,18.8,29.9,28.6,50,23.2"/>
	<line class="st1" x1="1041" y1="1067.4" x2="1393.8" y2="972.8"/>
	<line class="st1" x1="1046.1" y1="1086.5" x2="1402.2" y2="991.1"/>
	<line class="st1" x1="1030.7" y1="1029" x2="1376.9" y2="936.3"/>
	<line class="st1" x1="1035.8" y1="1048.2" x2="1385.3" y2="954.6"/>
	<line class="st3" x1="831.9" y1="861.6" x2="795.7" y2="783.3"/>
	<line class="st3" x1="840.1" y1="857.8" x2="804" y2="779.5"/>
	<line class="st3" x1="848.3" y1="854" x2="812.2" y2="775.7"/>
	<line class="st3" x1="856.5" y1="850.3" x2="820.4" y2="772"/>
	<line class="st3" x1="864.7" y1="846.5" x2="828.6" y2="768.2"/>
	<line class="st3" x1="872.9" y1="842.7" x2="836.8" y2="764.4"/>
	<line class="st3" x1="881.2" y1="838.9" x2="845" y2="760.6"/>
	<line class="st3" x1="889.4" y1="835.1" x2="853.2" y2="756.8"/>
	<line class="st3" x1="897.6" y1="831.3" x2="861.5" y2="753"/>
	<polyline class="st4" points="780.4,1505.8 757.9,1511.8 772.1,1564.1 	"/>
	<line class="st4" x1="1387.5" y1="1342.8" x2="1479.4" y2="1317.8"/>
	<polyline class="st4" points="1744,1245.8 1687.4,1033.8 1557.4,1067.8 1204.6,304.2 237.4,755.8 153.4,574.8 	"/>
	<polyline class="st4" points="172.4,864.8 1047.4,461.8 1103.4,579.8 	"/>
	<line class="st4" x1="1687.4" y1="1033.8" x2="1742.1" y2="1002.1"/>
	<polygon class="st4" points="1295.9,501.2 1473.3,416.8 1620,736.3 1443.3,820.8 	"/>
	<polyline class="st4" points="632.4,652.8 710.4,821.8 632.4,652.8 289.5,810.9 370.1,981 	"/>
	<polygon class="st4" points="517.5,406.9 603,584.9 237.4,755.8 153.4,575.8 	"/>
	<polygon class="st4" points="1042.4,379.8 959.8,202.4 627.4,356.8 629.3,360.6 712.4,533.8 1383.4,220.8 1302.1,44.1 959.8,202.4 
			"/>
	<polygon class="st4" points="2031.5,1202 1891.4,1238.8 1883.4,1208.8 1619.4,1278.8 1671.4,1472.8 2076.5,1364.1 	"/>
	<polygon class="st4" points="1387.5,1342.8 1029.5,1438.9 1082.5,1630.6 1441.3,1534.4 	"/>
	<polyline class="st4" points="820.8,771.4 921,724.9 897.4,673.4 1103.4,578.8 1047.9,461.6 743.4,601.4 820.8,771.4 	"/>
	<polyline class="st4" points="1671.4,1472.8 1531.5,1510.3 1479.4,1317.8 1569.6,1292.7 	"/>
	<polygon class="st4" points="1319,1361.2 780.4,1505.8 718.1,1280.8 1258.1,1135.4 	"/>
	<line class="st4" x1="1055.4" y1="478.3" x2="1146.1" y2="436.5"/>
	<line class="st4" x1="1060.5" y1="485.9" x2="1149.9" y2="444.7"/>
	<line class="st4" x1="1064.3" y1="494.1" x2="1153.6" y2="452.9"/>
	<line class="st4" x1="1068.1" y1="502.4" x2="1157.4" y2="461.1"/>
	<line class="st4" x1="1071.9" y1="510.6" x2="1161.2" y2="469.4"/>
	<line class="st4" x1="1075.7" y1="518.8" x2="1165" y2="477.6"/>
	<line class="st4" x1="1079.5" y1="527" x2="1168.8" y2="485.8"/>
	<line class="st4" x1="1083.3" y1="535.2" x2="1172.6" y2="494"/>
	<line class="st4" x1="1087.1" y1="543.4" x2="1176.4" y2="502.2"/>
	<line class="st4" x1="1090.8" y1="551.7" x2="1180.2" y2="510.4"/>
	<line class="st4" x1="1094.6" y1="559.9" x2="1184" y2="518.7"/>
	<line class="st4" x1="1098" y1="449" x2="1139.4" y2="538.8"/>
	<polyline class="st4" points="1051.7,470.1 1142.3,428.3 1142.3,428.4 1193.3,538.8 	"/>
	<line class="st4" x1="1330" y1="1112.9" x2="1311.5" y2="1044.5"/>
	<line class="st4" x1="1338.7" y1="1110.5" x2="1320.2" y2="1042.1"/>
	<line class="st4" x1="1347.5" y1="1108.2" x2="1329" y2="1039.7"/>
	<line class="st4" x1="1356.2" y1="1105.8" x2="1337.7" y2="1037.4"/>
	<line class="st4" x1="1364.9" y1="1103.4" x2="1346.5" y2="1035"/>
	<line class="st4" x1="1373.7" y1="1101.1" x2="1355.2" y2="1032.7"/>
	<line class="st4" x1="1382.4" y1="1098.7" x2="1363.9" y2="1030.3"/>
	<line class="st4" x1="1391.1" y1="1096.4" x2="1372.7" y2="1027.9"/>
	<line class="st4" x1="1399.9" y1="1094" x2="1381.4" y2="1025.6"/>
	<line class="st4" x1="1408.6" y1="1091.6" x2="1390.1" y2="1023.2"/>
	<line class="st4" x1="1417.3" y1="1089.3" x2="1398.9" y2="1020.9"/>
	<line class="st4" x1="1426.1" y1="1086.9" x2="1407.6" y2="1018.5"/>
	<line class="st4" x1="1259.7" y1="1141.1" x2="1331.9" y2="1121.9"/>
	<line class="st4" x1="1262.1" y1="1149.9" x2="1334.2" y2="1130.7"/>
	<line class="st4" x1="1264.4" y1="1158.6" x2="1336.6" y2="1139.4"/>
	<line class="st4" x1="1266.7" y1="1167.4" x2="1338.9" y2="1148.2"/>
	<line class="st4" x1="1269" y1="1176.1" x2="1341.2" y2="1156.9"/>
	<line class="st4" x1="1271.4" y1="1184.8" x2="1343.5" y2="1165.7"/>
	<line class="st4" x1="1273.7" y1="1193.6" x2="1345.8" y2="1174.4"/>
	
		<rect x="1336.9" y="1102.8" transform="matrix(-0.2466 -0.9691 0.9691 -0.2466 606.7315 2741.8982)" class="st4" width="64.5" height="64.5"/>
	<line class="st4" x1="1427.1" y1="1086.5" x2="1358.5" y2="1104.5"/>
	<polygon class="st9" points="57.1,619.9 250.6,1035.4 921,724.9 897.4,673.4 1192.8,538.1 1414.1,1016.8 1248.8,1060.8 
		1258.1,1135.4 718.1,1280.8 651.4,1136.1 366.1,1270.8 552.8,1669.4 772.1,1564.1 807.4,1702.1 910.8,1760.8 1025.4,1729.4 
		1082.1,1630.8 2076.1,1364.1 1962.1,942.1 1742.1,1002.1 1302.1,44.1 	"/>
	<path class="st10" d="M1673,851.1l27.6-12.3c0,0,11.3,25.3-16.3,37.6"/>
	<path class="st10" d="M1695.6,901.7l27.6-12.3c0,0-11.3-25.3-38.9-13"/>
	<path class="st4" d="M1496,933.1l27.6-12.3c0,0,11.3,25.3-16.3,37.6"/>
	<path class="st4" d="M1518.6,983.7l27.6-12.3c0,0-11.3-25.3-38.9-13"/>
	<path class="st10" d="M1173.3,547.2l12.3,27.6c0,0-25.3,11.3-37.6-16.3"/>
	<path class="st10" d="M1254.7,1115.4l-30.1,3.5c0,0-3.2-27.5,26.8-31"/>
</g>
</svg>
