<?xml version="1.0" encoding="utf-8"?>
<!-- Generator: Adobe Illustrator 19.2.1, SVG Export Plug-In . SVG Version: 6.00 Build 0)  -->
<svg version="1.1" id="Ebene_2" xmlns="http://www.w3.org/2000/svg" xmlns:xlink="http://www.w3.org/1999/xlink" x="0px" y="0px"
	 viewBox="0 0 2140.1 1819.8" style="enable-background:new 0 0 2140.1 1819.8;" xml:space="preserve">
<style type="text/css">
	.st0{fill:none;stroke:#454849;stroke-miterlimit:10;}
	.st1{fill:none;stroke:#000000;stroke-width:1.5;stroke-miterlimit:10;}
</style>
<g>
	<line class="st0" x1="725" y1="1333.7" x2="714.7" y2="1283.7"/>
	<polyline class="st0" points="1668.2,1475.5 1615,1278.7 1880,1208.7 1888,1238.7 2027.4,1199.3 	"/>
	<polyline class="st0" points="1739.7,1245.7 1684,1036.7 1554,1070.7 1201,306.7 234,758.7 150,577.7 	"/>
	<polyline class="st0" points="169,867.7 1046,463.7 1100,582.7 	"/>
	<line class="st0" x1="1201" y1="306.7" x2="1379.9" y2="223.8"/>
	<line class="st0" x1="955.4" y1="205.3" x2="1039" y2="382.7"/>
	<line class="st0" x1="709" y1="536.7" x2="624" y2="359.7"/>
	<line class="st0" x1="291.3" y1="811.3" x2="370" y2="981.7"/>
	<line class="st0" x1="628" y1="656.7" x2="706" y2="825.7"/>
	<polyline class="st0" points="1435.5,1537.9 1384.1,1345.7 1027,1440.7 1078.7,1633.7 	"/>
	<line class="st0" x1="1254.9" y1="1138.4" x2="1314" y2="1364.7"/>
	<polyline class="st0" points="1027,1440.7 754.5,1514.7 768.7,1567.3 	"/>
	<polyline class="st0" points="451,1460.7 725,1333.7 771,1509.7 	"/>
	<line class="st0" x1="514.1" y1="409.8" x2="598.8" y2="588.1"/>
	<polyline class="st0" points="952.4,1219.7 990.7,1362.2 991,1362.2 1292.5,1282.2 	"/>
	<line class="st0" x1="1384.1" y1="1345.7" x2="1420" y2="1336.3"/>
	<line class="st0" x1="1448.5" y1="1328.7" x2="1554" y2="1300.7"/>
	<line class="st0" x1="1486.3" y1="1318.6" x2="1538.3" y2="1509.7"/>
	<line class="st0" x1="1684" y1="1036.7" x2="1738.7" y2="1005"/>
	<polyline class="st0" points="1411,1019.9 1448.9,1102.3 1459.7,1143.2 	"/>
	<line class="st0" x1="1481.3" y1="914.3" x2="1660" y2="833"/>
	<line class="st0" x1="1418.7" y1="777.7" x2="1597.3" y2="696.3"/>
	<line class="st0" x1="1336.7" y1="601" x2="1515.3" y2="519.7"/>
	<line class="st0" x1="1262.3" y1="439" x2="1441" y2="357.7"/>
	<line class="st0" x1="1008" y1="481.7" x2="1062.7" y2="599.7"/>
	<line class="st0" x1="740" y1="604.3" x2="817.3" y2="774.3"/>
	<line class="st0" x1="1053.1" y1="480.5" x2="1142.7" y2="439.2"/>
	<line class="st0" x1="1057.3" y1="488.6" x2="1146.4" y2="447.4"/>
	<line class="st0" x1="1061.5" y1="496.6" x2="1150.2" y2="455.7"/>
	<line class="st0" x1="1064.5" y1="505.2" x2="1154" y2="463.9"/>
	<line class="st0" x1="1068.3" y1="513.4" x2="1157.8" y2="472.1"/>
	<line class="st0" x1="1072.1" y1="521.6" x2="1161.6" y2="480.3"/>
	<line class="st0" x1="1075.9" y1="529.8" x2="1165.4" y2="488.5"/>
	<line class="st0" x1="1079.7" y1="538" x2="1169.2" y2="496.7"/>
	<line class="st0" x1="1083.5" y1="546.2" x2="1172.8" y2="505"/>
	<line class="st0" x1="1087.2" y1="554.5" x2="1176.8" y2="513.2"/>
	<line class="st0" x1="1090.9" y1="562.7" x2="1180.6" y2="521.4"/>
	<line class="st0" x1="1093.1" y1="452" x2="1134.9" y2="542.5"/>
	<polyline class="st0" points="1049.8,472.1 1138.8,430.8 1139,431.3 1189.6,541.1 	"/>
	<line class="st0" x1="1317" y1="1113.5" x2="1300.3" y2="1049.3"/>
	<line class="st0" x1="1326.2" y1="1110.7" x2="1308.7" y2="1046.2"/>
	<line class="st0" x1="1335.1" y1="1108.7" x2="1317.8" y2="1044.6"/>
	<line class="st0" x1="1343.9" y1="1106.5" x2="1326.7" y2="1042.8"/>
	<line class="st0" x1="1352.7" y1="1104.2" x2="1335.4" y2="1040.4"/>
	<line class="st0" x1="1361.4" y1="1102" x2="1344.2" y2="1038.1"/>
	<line class="st0" x1="1370.3" y1="1100.3" x2="1352.9" y2="1035.7"/>
	<line class="st0" x1="1379.4" y1="1097.4" x2="1361.6" y2="1033.4"/>
	<line class="st0" x1="1255.1" y1="1140.4" x2="1319.4" y2="1123.3"/>
	<line class="st0" x1="1257.4" y1="1149.2" x2="1321.2" y2="1132.2"/>
	<line class="st0" x1="1259.8" y1="1157.9" x2="1323.5" y2="1141"/>
	<line class="st0" x1="1262.1" y1="1166.7" x2="1325.8" y2="1149.7"/>
	<line class="st0" x1="1264.4" y1="1175.4" x2="1328.1" y2="1158.5"/>
	<line class="st0" x1="1266.7" y1="1184.1" x2="1330.5" y2="1167.2"/>
	<line class="st0" x1="1269.1" y1="1192.9" x2="1332.8" y2="1175.9"/>
	
		<rect x="1323.8" y="1104.4" transform="matrix(-0.2466 -0.9691 0.9691 -0.2466 588.9446 2731.1619)" class="st0" width="64.5" height="64.5"/>
	<line class="st0" x1="1379.7" y1="1098.8" x2="1439.8" y2="1082.5"/>
	<line class="st0" x1="1382" y1="1107.5" x2="1443.7" y2="1090.9"/>
	<line class="st0" x1="1383.8" y1="1116.4" x2="1447.2" y2="1099.3"/>
	<line class="st0" x1="1386.1" y1="1125.2" x2="1450.3" y2="1107.8"/>
	<line class="st0" x1="1388.5" y1="1133.9" x2="1452.7" y2="1116.5"/>
	<line class="st0" x1="1390.9" y1="1142.6" x2="1455" y2="1125.3"/>
	<line class="st0" x1="1393.2" y1="1151.4" x2="1457.4" y2="1134"/>
	<line class="st0" x1="1395.3" y1="1160" x2="1459.7" y2="1142.8"/>
	<polygon class="st1" points="53.6,622.8 247.1,1038.3 917.6,727.8 894,676.3 1189.3,541 1410.7,1019.7 1245.3,1063.7 
		1254.7,1138.3 714.7,1283.7 648,1139 362.7,1273.7 549.3,1672.3 768.4,1567.1 804,1705 907.3,1763.7 1022,1732.3 1078.7,1633.7 
		2072.7,1367 1958.7,945 1738.7,1005 1298.7,47 	"/>
</g>
</svg>
