<?xml version="1.0" encoding="utf-8"?>
<!-- Generator: Adobe Illustrator 19.2.1, SVG Export Plug-In . SVG Version: 6.00 Build 0)  -->
<svg version="1.1" id="Ebene_2" xmlns="http://www.w3.org/2000/svg" xmlns:xlink="http://www.w3.org/1999/xlink" x="0px" y="0px"
	 viewBox="0 0 2140.1 1819.8" style="enable-background:new 0 0 2140.1 1819.8;" xml:space="preserve">
<style type="text/css">
	.st0{fill:none;stroke:#454849;stroke-miterlimit:10;}
	.st1{fill:none;stroke:#000000;stroke-width:1.5;stroke-miterlimit:10;}
</style>
<polyline class="st0" points="1737.3,1001.1 1550.3,1067.3 1197.3,303.3 230.3,755.3 146.3,574.3 "/>
<polyline class="st0" points="164.2,864.8 1042.3,460.3 1096.3,579.3 "/>
<line class="st0" x1="1197.3" y1="303.3" x2="1376.2" y2="220.4"/>
<line class="st0" x1="952.7" y1="201.9" x2="1035.3" y2="379.3"/>
<line class="st0" x1="705.3" y1="533.3" x2="620.3" y2="356.3"/>
<line class="st0" x1="414.1" y1="749.6" x2="492.6" y2="919.5"/>
<polyline class="st0" points="1431.4,1532.8 1380.4,1342.3 1022.3,1437.3 1075,1630.3 "/>
<line class="st0" x1="1251" y1="1134.9" x2="1310.3" y2="1361.3"/>
<polyline class="st0" points="1022.3,1437.3 750.8,1511.3 765,1563.6 "/>
<line class="st0" x1="351.1" y1="479.7" x2="436.2" y2="659"/>
<line class="st0" x1="948.3" y1="1214.9" x2="987.9" y2="1359.7"/>
<line class="st0" x1="987.3" y1="1358.8" x2="1288.8" y2="1278.8"/>
<line class="st0" x1="1380.4" y1="1342.3" x2="1416.3" y2="1332.9"/>
<line class="st0" x1="1416.3" y1="1332.9" x2="1550.3" y2="1297.3"/>
<line class="st0" x1="1482.6" y1="1315.3" x2="1534.6" y2="1506.3"/>
<line class="st0" x1="1378.6" y1="695.3" x2="1557.3" y2="613.9"/>
<line class="st0" x1="1259" y1="436.9" x2="1438.3" y2="355.3"/>
<line class="st0" x1="736.3" y1="600.9" x2="813.6" y2="770.9"/>
<line class="st0" x1="1550.3" y1="1067.3" x2="1660.3" y2="1473.2"/>
<line class="st0" x1="1049.4" y1="477.1" x2="1139.2" y2="435.7"/>
<line class="st0" x1="1053.6" y1="485.2" x2="1143" y2="443.9"/>
<line class="st0" x1="1057.8" y1="493.2" x2="1146.8" y2="452.2"/>
<line class="st0" x1="1060.8" y1="501.8" x2="1150.6" y2="460.4"/>
<line class="st0" x1="1064.6" y1="510" x2="1154.4" y2="468.6"/>
<line class="st0" x1="1068.4" y1="518.2" x2="1158.1" y2="476.8"/>
<line class="st0" x1="1072.2" y1="526.4" x2="1161.9" y2="485"/>
<line class="st0" x1="1076" y1="534.6" x2="1165.7" y2="493.2"/>
<line class="st0" x1="1079.8" y1="542.9" x2="1169.3" y2="501.5"/>
<line class="st0" x1="1083.5" y1="551.1" x2="1173.3" y2="509.7"/>
<line class="st0" x1="1087.2" y1="559.3" x2="1177.1" y2="517.9"/>
<line class="st0" x1="1089.4" y1="448.6" x2="1131.1" y2="539.1"/>
<polyline class="st0" points="1046.1,468.7 1135.1,427.4 1135.2,427.8 1186.1,538 "/>
<polyline class="st0" points="1408.4,1017 1445.2,1097.9 1456,1138.8 "/>
<line class="st0" x1="1313.2" y1="1109.1" x2="1297" y2="1046.2"/>
<line class="st0" x1="1322.5" y1="1106.4" x2="1305.2" y2="1042.6"/>
<line class="st0" x1="1331.4" y1="1104.3" x2="1314.5" y2="1041.5"/>
<line class="st0" x1="1340.2" y1="1102.1" x2="1323.2" y2="1039.2"/>
<line class="st0" x1="1349" y1="1099.8" x2="1331.9" y2="1036.8"/>
<line class="st0" x1="1357.7" y1="1097.6" x2="1340.7" y2="1034.4"/>
<line class="st0" x1="1366.6" y1="1095.9" x2="1349.4" y2="1032.1"/>
<line class="st0" x1="1375.7" y1="1093" x2="1358.1" y2="1029.7"/>
<line class="st0" x1="1251.4" y1="1136" x2="1315.1" y2="1119.1"/>
<line class="st0" x1="1253.7" y1="1144.8" x2="1317.4" y2="1127.8"/>
<line class="st0" x1="1256" y1="1153.5" x2="1319.8" y2="1136.6"/>
<line class="st0" x1="1258.4" y1="1162.3" x2="1322.1" y2="1145.3"/>
<line class="st0" x1="1260.7" y1="1171" x2="1324.4" y2="1154.1"/>
<line class="st0" x1="1263" y1="1179.7" x2="1326.7" y2="1162.8"/>
<line class="st0" x1="1265.3" y1="1188.5" x2="1329.1" y2="1171.5"/>
<rect x="1320.1" y="1100" transform="matrix(-0.2466 -0.9691 0.9691 -0.2466 588.5763 2722.0852)" class="st0" width="64.5" height="64.5"/>
<line class="st0" x1="1376" y1="1094.4" x2="1436.1" y2="1078.1"/>
<line class="st0" x1="1378.2" y1="1103.1" x2="1440" y2="1086.5"/>
<line class="st0" x1="1380.1" y1="1112" x2="1443.5" y2="1094.9"/>
<line class="st0" x1="1382.4" y1="1120.8" x2="1446.6" y2="1103.4"/>
<line class="st0" x1="1384.8" y1="1129.5" x2="1448.9" y2="1112.2"/>
<line class="st0" x1="1387.1" y1="1138.2" x2="1451.3" y2="1120.9"/>
<line class="st0" x1="1389.5" y1="1147" x2="1453.7" y2="1129.6"/>
<line class="st0" x1="1391.9" y1="1155.7" x2="1456" y2="1138.4"/>
<line class="st0" x1="711" y1="1280.3" x2="750.8" y2="1511.3"/>
<polygon class="st1" points="49.9,619.4 243.4,1034.9 913.9,724.4 890.3,672.9 1185.6,537.6 1407,1016.3 1241.6,1060.3 1251,1134.9 
	711,1280.3 644.3,1135.6 359,1270.3 545.6,1668.9 765,1563.6 800.3,1701.6 903.6,1760.3 1018.3,1728.9 1075,1630.3 2069,1363.6 
	1955,941.6 1735,1001.6 1295,43.6 "/>
</svg>
