<?xml version="1.0" encoding="utf-8"?>
<!-- Generator: Adobe Illustrator 19.1.0, SVG Export Plug-In . SVG Version: 6.00 Build 0)  -->
<svg version="1.1" id="Layer_1" xmlns="http://www.w3.org/2000/svg" xmlns:xlink="http://www.w3.org/1999/xlink" x="0px" y="0px"
	 viewBox="223.6 77.7 667.2 129.3" style="enable-background:new 223.6 77.7 667.2 129.3;" xml:space="preserve">
<style type="text/css">
	.st0{fill:#FFFFFF;}
	.st1{clip-path:url(#SVGID_3_);}
	.st2{fill:none;stroke:#CCCCCC;stroke-width:0.1;stroke-miterlimit:10;}
	.st3{fill:#4D4C4C;}
	.st4{fill:none;stroke:#4C4C4C;stroke-width:0.4;stroke-miterlimit:10;}
	.st5{fill:none;stroke:#000000;stroke-width:0.7;stroke-miterlimit:10;}
	.st6{fill:#4C4C4C;}
	.st7{fill:none;stroke:#000000;stroke-width:0.6;stroke-miterlimit:10;}
</style>
<g>
	<g>
		<rect id="SVGID_1_" x="523.7" y="154.5" class="st0" width="64.3" height="40.7"/>
	</g>
	<g>
		<defs>
			<rect id="SVGID_2_" x="523.7" y="154.5" width="64.3" height="40.7"/>
		</defs>
		<clipPath id="SVGID_3_">
			<use xlink:href="#SVGID_2_"  style="overflow:visible;"/>
		</clipPath>
		<g class="st1">
			<line class="st2" x1="523.8" y1="192.7" x2="562.1" y2="154.4"/>
			<line class="st2" x1="520.2" y1="198.3" x2="565.1" y2="153.4"/>
			<line class="st2" x1="522.2" y1="198.3" x2="567.1" y2="153.4"/>
			<line class="st2" x1="525.2" y1="197.3" x2="570.1" y2="152.4"/>
			<line class="st2" x1="526.2" y1="198.3" x2="571.1" y2="153.4"/>
			<line class="st2" x1="529.2" y1="197.3" x2="574.1" y2="152.4"/>
			<line class="st2" x1="531.2" y1="197.3" x2="576.1" y2="152.4"/>
			<line class="st2" x1="534.2" y1="196.3" x2="579.1" y2="151.4"/>
			<line class="st2" x1="533.2" y1="199.3" x2="578.1" y2="154.4"/>
			<line class="st2" x1="536.2" y1="198.3" x2="581.1" y2="153.4"/>
			<line class="st2" x1="538.2" y1="198.3" x2="583.1" y2="153.4"/>
			<line class="st2" x1="541.2" y1="197.3" x2="586.1" y2="152.4"/>
			<line class="st2" x1="542.2" y1="198.3" x2="587.1" y2="153.4"/>
			<line class="st2" x1="545.2" y1="197.3" x2="590.1" y2="152.4"/>
			<line class="st2" x1="547.2" y1="197.3" x2="592.1" y2="152.4"/>
			<line class="st2" x1="550.2" y1="196.3" x2="595.1" y2="151.4"/>
			<line class="st2" x1="551.8" y1="196.7" x2="590.1" y2="158.4"/>
			<line class="st2" x1="554.8" y1="195.7" x2="593.1" y2="157.4"/>
			<line class="st2" x1="556.8" y1="195.7" x2="595.1" y2="157.4"/>
			<line class="st2" x1="559.8" y1="194.7" x2="598.1" y2="156.4"/>
			<line class="st2" x1="560.8" y1="195.7" x2="599.1" y2="157.4"/>
			<line class="st2" x1="563.8" y1="194.7" x2="602.1" y2="156.4"/>
			<line class="st2" x1="565.8" y1="194.7" x2="604.1" y2="156.4"/>
			<line class="st2" x1="567.7" y1="194.8" x2="607.1" y2="155.4"/>
			<line class="st2" x1="569.4" y1="195.1" x2="606.1" y2="158.4"/>
			<line class="st2" x1="571.4" y1="195.1" x2="609.1" y2="157.4"/>
			<line class="st2" x1="573.3" y1="195.2" x2="611.1" y2="157.4"/>
			<line class="st2" x1="575.3" y1="195.2" x2="614.1" y2="156.4"/>
			<line class="st2" x1="577.4" y1="195.1" x2="615.1" y2="157.4"/>
			<line class="st2" x1="579.8" y1="194.7" x2="618.1" y2="156.4"/>
			<line class="st2" x1="581.8" y1="194.7" x2="620.1" y2="156.4"/>
			<line class="st2" x1="583.6" y1="194.9" x2="623.1" y2="155.4"/>
			<line class="st2" x1="500.8" y1="189.7" x2="539.1" y2="151.4"/>
			<line class="st2" x1="503.8" y1="188.7" x2="542.1" y2="150.4"/>
			<line class="st2" x1="505.8" y1="188.7" x2="544.1" y2="150.4"/>
			<line class="st2" x1="508.8" y1="187.7" x2="547.1" y2="149.4"/>
			<line class="st2" x1="509.8" y1="188.7" x2="548.1" y2="150.4"/>
			<line class="st2" x1="512.8" y1="187.7" x2="551.1" y2="149.4"/>
			<line class="st2" x1="514.8" y1="187.7" x2="553.1" y2="149.4"/>
			<line class="st2" x1="517.8" y1="186.7" x2="556.1" y2="148.4"/>
			<line class="st2" x1="516.8" y1="189.7" x2="555.1" y2="151.4"/>
			<line class="st2" x1="519.8" y1="188.7" x2="558.1" y2="150.4"/>
			<line class="st2" x1="521.8" y1="188.7" x2="560.1" y2="150.4"/>
			<line class="st2" x1="523.8" y1="188.7" x2="563.1" y2="149.4"/>
			<line class="st2" x1="523.8" y1="190.7" x2="564.1" y2="150.4"/>
			<line class="st2" x1="498.8" y1="181.7" x2="537.1" y2="143.4"/>
			<line class="st2" x1="501.8" y1="180.7" x2="540.1" y2="142.4"/>
			<line class="st2" x1="502.8" y1="181.7" x2="541.1" y2="143.4"/>
			<line class="st2" x1="505.8" y1="180.7" x2="544.1" y2="142.4"/>
			<line class="st2" x1="507.8" y1="180.7" x2="546.1" y2="142.4"/>
			<line class="st2" x1="585.4" y1="195.1" x2="587.8" y2="192.7"/>
		</g>
	</g>
</g>
<g>
	<line class="st2" x1="531.6" y1="103.3" x2="549.2" y2="85.7"/>
	<line class="st2" x1="535.6" y1="103.3" x2="553.2" y2="85.7"/>
	<line class="st2" x1="533.6" y1="103.3" x2="551.2" y2="85.7"/>
	<line class="st2" x1="537.6" y1="103.3" x2="555.2" y2="85.7"/>
	<line class="st2" x1="539.6" y1="103.3" x2="557.2" y2="85.7"/>
	<line class="st2" x1="543.6" y1="103.3" x2="561.2" y2="85.7"/>
	<line class="st2" x1="547.6" y1="103.3" x2="565.2" y2="85.7"/>
	<line class="st2" x1="541.6" y1="103.3" x2="559.2" y2="85.7"/>
	<line class="st2" x1="545.6" y1="103.3" x2="563.2" y2="85.7"/>
	<line class="st2" x1="549.6" y1="103.3" x2="567.2" y2="85.7"/>
	<line class="st2" x1="551.6" y1="103.3" x2="569.2" y2="85.7"/>
	<line class="st2" x1="555.6" y1="103.3" x2="573.2" y2="85.7"/>
	<line class="st2" x1="559.6" y1="103.3" x2="577.2" y2="85.7"/>
	<line class="st2" x1="553.6" y1="103.3" x2="571.2" y2="85.7"/>
	<line class="st2" x1="557.6" y1="103.3" x2="575.2" y2="85.7"/>
	<line class="st2" x1="561.6" y1="103.3" x2="579.2" y2="85.7"/>
	<line class="st2" x1="563.6" y1="103.3" x2="581.2" y2="85.7"/>
	<line class="st2" x1="567.6" y1="103.3" x2="585.2" y2="85.7"/>
	<line class="st2" x1="571.6" y1="103.3" x2="587.3" y2="87.6"/>
	<line class="st2" x1="565.6" y1="103.3" x2="583.2" y2="85.7"/>
	<line class="st2" x1="569.6" y1="103.3" x2="587.2" y2="85.7"/>
	<line class="st2" x1="573.6" y1="103.3" x2="587.3" y2="89.6"/>
	<line class="st2" x1="575.6" y1="103.3" x2="587.4" y2="91.5"/>
	<line class="st2" x1="577.6" y1="103.3" x2="587.3" y2="93.6"/>
	<line class="st2" x1="579.6" y1="103.3" x2="587.3" y2="95.6"/>
	<line class="st2" x1="583.6" y1="103.3" x2="587.2" y2="99.7"/>
	<line class="st2" x1="581.6" y1="103.3" x2="587.4" y2="97.5"/>
	<line class="st2" x1="585.6" y1="103.3" x2="587.2" y2="101.7"/>
</g>
<line class="st2" x1="527.6" y1="103.3" x2="545.2" y2="85.7"/>
<line class="st2" x1="529.6" y1="103.3" x2="547.2" y2="85.7"/>
<line class="st2" x1="527.5" y1="87.4" x2="529.2" y2="85.7"/>
<line class="st2" x1="527.5" y1="91.4" x2="533.2" y2="85.7"/>
<line class="st2" x1="527.6" y1="95.3" x2="537.2" y2="85.7"/>
<line class="st2" x1="527.6" y1="89.3" x2="531.2" y2="85.7"/>
<line class="st2" x1="527.6" y1="93.3" x2="535.2" y2="85.7"/>
<line class="st2" x1="527.6" y1="97.3" x2="539.2" y2="85.7"/>
<line class="st2" x1="527.5" y1="99.4" x2="541.2" y2="85.7"/>
<line class="st2" x1="527.6" y1="101.3" x2="543.2" y2="85.7"/>
<g>
	<rect x="587.1" y="85.7" class="st3" width="0.4" height="24.3"/>
</g>
<polyline class="st4" points="601,79.7 601,109.9 621,109.9 "/>
<line class="st4" x1="587.8" y1="154.5" x2="621" y2="154.5"/>
<line class="st4" x1="587.8" y1="156.5" x2="621" y2="156.5"/>
<line class="st4" x1="587.8" y1="158.5" x2="621" y2="158.5"/>
<line class="st4" x1="587.8" y1="160.5" x2="621" y2="160.5"/>
<line class="st4" x1="587.8" y1="162.5" x2="621" y2="162.5"/>
<line class="st4" x1="587.8" y1="164.5" x2="621" y2="164.5"/>
<line class="st4" x1="587.8" y1="166.5" x2="621" y2="166.5"/>
<line class="st4" x1="587.8" y1="168.5" x2="621" y2="168.5"/>
<line class="st4" x1="587.8" y1="170.5" x2="621" y2="170.5"/>
<line class="st4" x1="587.8" y1="172.5" x2="621" y2="172.5"/>
<line class="st4" x1="587.8" y1="174.5" x2="621" y2="174.5"/>
<line class="st4" x1="587.8" y1="176.5" x2="621" y2="176.5"/>
<line class="st4" x1="587.8" y1="178.5" x2="621" y2="178.5"/>
<line class="st4" x1="587.8" y1="180.5" x2="621" y2="180.5"/>
<line class="st4" x1="604.4" y1="154.5" x2="604.4" y2="180.5"/>
<line class="st4" x1="270.4" y1="79.7" x2="270.4" y2="110.5"/>
<line class="st4" x1="268.4" y1="79.7" x2="268.4" y2="110.5"/>
<line class="st4" x1="266.4" y1="79.7" x2="266.4" y2="110.5"/>
<line class="st4" x1="264.4" y1="79.7" x2="264.4" y2="110.5"/>
<line class="st4" x1="262.4" y1="79.7" x2="262.4" y2="110.5"/>
<line class="st4" x1="260.4" y1="79.7" x2="260.4" y2="110.5"/>
<line class="st4" x1="258.4" y1="79.7" x2="258.4" y2="110.5"/>
<line class="st4" x1="256.4" y1="79.7" x2="256.4" y2="110.5"/>
<line class="st4" x1="254.4" y1="79.7" x2="254.4" y2="110.5"/>
<line class="st4" x1="252.4" y1="79.7" x2="252.4" y2="110.5"/>
<line class="st4" x1="250.4" y1="79.7" x2="250.4" y2="110.5"/>
<line class="st4" x1="248.4" y1="79.7" x2="248.4" y2="110.5"/>
<line class="st4" x1="246.4" y1="79.7" x2="246.4" y2="110.5"/>
<polyline class="st4" points="244.4,79.7 244.4,95 244.4,110.5 "/>
<line class="st4" x1="270.4" y1="95" x2="244.4" y2="95"/>
<g>
	<rect x="587.6" y="128.7" class="st3" width="0.4" height="66.5"/>
</g>
<path class="st5" d="M485,85.7"/>
<polyline class="st4" points="224,127 466.7,127 466.7,150.6 466.7,195.2 "/>
<polyline class="st4" points="484.9,85.7 484.9,109.8 484.9,110.5 289,110.5 224,110.5 "/>
<line class="st4" x1="289" y1="110.5" x2="289" y2="79.7"/>
<line class="st4" x1="339.1" y1="110.5" x2="339.1" y2="79.7"/>
<line class="st4" x1="390.6" y1="110.5" x2="390.6" y2="79.7"/>
<line class="st4" x1="443.5" y1="110.5" x2="443.5" y2="79.7"/>
<g>
	<path class="st6" d="M523.4,150.6v44.2h-56.5v-44.2H523.4 M523.8,150.2h-57.2v45h57.2V150.2L523.8,150.2z"/>
</g>
<line class="st4" x1="523.8" y1="154.5" x2="587.8" y2="154.5"/>
<polyline class="st4" points="484.9,110.5 527.6,110.5 527.6,85.7 "/>
<line class="st4" x1="527.6" y1="103.3" x2="587.2" y2="103.3"/>
<line class="st4" x1="667.5" y1="99.8" x2="667.5" y2="78.6"/>
<line class="st4" x1="669.5" y1="99.8" x2="669.5" y2="78.6"/>
<line class="st4" x1="671.5" y1="99.8" x2="671.5" y2="78.6"/>
<line class="st4" x1="673.5" y1="99.8" x2="673.5" y2="78.6"/>
<line class="st4" x1="675.5" y1="99.8" x2="675.5" y2="78.6"/>
<line class="st4" x1="677.5" y1="99.8" x2="677.5" y2="78.6"/>
<line class="st4" x1="679.5" y1="99.8" x2="679.5" y2="78.6"/>
<line class="st4" x1="681.5" y1="99.8" x2="681.5" y2="78.6"/>
<line class="st4" x1="683.5" y1="99.8" x2="683.5" y2="78.6"/>
<line class="st4" x1="685.5" y1="99.8" x2="685.5" y2="78.6"/>
<line class="st4" x1="687.5" y1="99.8" x2="687.5" y2="78.6"/>
<line class="st4" x1="689.5" y1="99.8" x2="689.5" y2="78.6"/>
<line class="st4" x1="691.5" y1="99.8" x2="691.5" y2="78.6"/>
<line class="st4" x1="693.5" y1="99.8" x2="693.5" y2="78.6"/>
<polygon class="st7" points="462.7,195.2 587.7,195.2 587.7,206.7 621,206.7 621,79.7 587.2,79.7 587.2,85.7 485,85.7 485,79.7 
	224,79.7 224,205.7 462.7,205.7 462.7,195.7 "/>
<polyline class="st4" points="758.7,85.7 758.7,118.2 890.5,118.2 "/>
<line class="st4" x1="790.2" y1="85.7" x2="790.2" y2="118.2"/>
<line class="st4" x1="823.1" y1="85.7" x2="823.1" y2="118.2"/>
<polyline class="st4" points="854.5,206.7 854.5,135.7 760.1,135.7 760.1,206.7 "/>
<line class="st4" x1="652.7" y1="135.7" x2="760.1" y2="135.7"/>
<line class="st4" x1="854.5" y1="135.7" x2="890.5" y2="135.7"/>
<polyline class="st4" points="652.7,99.7 713.8,99.7 713.8,78.3 "/>
<polyline class="st7" points="621,135.8 652.7,135.8 652.7,206.7 890.5,206.7 890.5,85.7 755.7,85.7 755.7,78.3 652.7,78.3 
	652.7,109.8 621,109.8 "/>
<rect x="615.4" y="110.1" class="st0" width="8.4" height="25.4"/>
</svg>
