<?xml version="1.0" encoding="utf-8"?>
<!-- Generator: Adobe Illustrator 19.1.0, SVG Export Plug-In . SVG Version: 6.00 Build 0)  -->
<svg version="1.1" id="Layer_1" xmlns="http://www.w3.org/2000/svg" xmlns:xlink="http://www.w3.org/1999/xlink" x="0px" y="0px"
	 viewBox="-5 96.9 271.7 90.6" style="enable-background:new -5 96.9 271.7 90.6;" xml:space="preserve">
<style type="text/css">
	.st0{fill:none;stroke:#CCCCCC;stroke-width:0.1;stroke-miterlimit:10;}
	.st1{fill:#4D4C4C;}
	.st2{fill:none;stroke:#4C4C4C;stroke-width:0.4;stroke-miterlimit:10;}
	.st3{fill:none;stroke:#000000;stroke-width:0.7;stroke-miterlimit:10;}
	.st4{fill:none;stroke:#000000;stroke-width:0.4;stroke-miterlimit:10;}
</style>
<g>
	<line class="st0" x1="204.5" y1="115.1" x2="216.4" y2="103.2"/>
	<line class="st0" x1="207.2" y1="115.1" x2="219.1" y2="103.2"/>
	<line class="st0" x1="205.9" y1="115.1" x2="217.8" y2="103.2"/>
	<line class="st0" x1="208.6" y1="115.1" x2="220.5" y2="103.2"/>
	<line class="st0" x1="209.9" y1="115.1" x2="221.8" y2="103.2"/>
	<line class="st0" x1="212.6" y1="115.1" x2="224.5" y2="103.2"/>
	<line class="st0" x1="215.3" y1="115.1" x2="227.2" y2="103.2"/>
	<line class="st0" x1="211.3" y1="115.1" x2="223.2" y2="103.2"/>
	<line class="st0" x1="214" y1="115.1" x2="225.9" y2="103.2"/>
	<line class="st0" x1="216.7" y1="115.1" x2="228.6" y2="103.2"/>
	<line class="st0" x1="218" y1="115.1" x2="229.9" y2="103.2"/>
	<line class="st0" x1="220.7" y1="115.1" x2="232.6" y2="103.2"/>
	<line class="st0" x1="223.4" y1="115.1" x2="235.3" y2="103.2"/>
	<line class="st0" x1="219.4" y1="115.1" x2="231.3" y2="103.2"/>
	<line class="st0" x1="222.1" y1="115.1" x2="234" y2="103.2"/>
	<line class="st0" x1="224.8" y1="115.1" x2="236.7" y2="103.2"/>
	<line class="st0" x1="226.1" y1="115.1" x2="238" y2="103.2"/>
	<line class="st0" x1="228.8" y1="115.1" x2="240.7" y2="103.2"/>
	<line class="st0" x1="231.5" y1="115.1" x2="242.1" y2="104.5"/>
	<line class="st0" x1="227.5" y1="115.1" x2="239.4" y2="103.2"/>
	<line class="st0" x1="230.2" y1="115.1" x2="242.1" y2="103.2"/>
	<line class="st0" x1="232.8" y1="115.1" x2="242.1" y2="105.9"/>
	<line class="st0" x1="234.2" y1="115.1" x2="242.2" y2="107.2"/>
	<line class="st0" x1="235.5" y1="115.1" x2="242.1" y2="108.6"/>
	<line class="st0" x1="236.9" y1="115.1" x2="242.1" y2="109.9"/>
	<line class="st0" x1="239.6" y1="115.1" x2="242.1" y2="112.7"/>
	<line class="st0" x1="238.2" y1="115.1" x2="242.2" y2="111.2"/>
	<line class="st0" x1="240.9" y1="115.1" x2="242" y2="114.1"/>
</g>
<line class="st0" x1="201.8" y1="115.1" x2="213.8" y2="103.2"/>
<line class="st0" x1="203.2" y1="115.1" x2="215.1" y2="103.2"/>
<line class="st0" x1="201.8" y1="104.4" x2="203" y2="103.2"/>
<line class="st0" x1="201.8" y1="107.1" x2="205.7" y2="103.2"/>
<line class="st0" x1="201.8" y1="109.8" x2="208.4" y2="103.2"/>
<line class="st0" x1="201.9" y1="105.7" x2="204.3" y2="103.2"/>
<line class="st0" x1="201.9" y1="108.4" x2="207" y2="103.2"/>
<line class="st0" x1="201.8" y1="111.1" x2="209.7" y2="103.2"/>
<line class="st0" x1="201.8" y1="112.5" x2="211.1" y2="103.2"/>
<line class="st0" x1="201.9" y1="113.8" x2="212.4" y2="103.2"/>
<g>
	<rect x="242" y="103.3" class="st1" width="0.3" height="16.4"/>
</g>
<polyline class="st2" points="251.3,99.2 251.3,119.5 264.8,119.5 "/>
<line class="st2" x1="242.4" y1="149.6" x2="264.8" y2="149.6"/>
<line class="st2" x1="242.4" y1="151" x2="264.8" y2="151"/>
<line class="st2" x1="242.4" y1="152.3" x2="264.8" y2="152.3"/>
<line class="st2" x1="242.4" y1="153.7" x2="264.8" y2="153.7"/>
<line class="st2" x1="242.4" y1="155" x2="264.8" y2="155"/>
<line class="st2" x1="242.4" y1="156.4" x2="264.8" y2="156.4"/>
<line class="st2" x1="242.4" y1="157.7" x2="264.8" y2="157.7"/>
<line class="st2" x1="242.4" y1="159.1" x2="264.8" y2="159.1"/>
<line class="st2" x1="242.4" y1="160.4" x2="264.8" y2="160.4"/>
<line class="st2" x1="242.4" y1="161.8" x2="264.8" y2="161.8"/>
<line class="st2" x1="242.4" y1="163.1" x2="264.8" y2="163.1"/>
<line class="st2" x1="242.4" y1="164.5" x2="264.8" y2="164.5"/>
<line class="st2" x1="242.4" y1="165.8" x2="264.8" y2="165.8"/>
<line class="st2" x1="242.4" y1="167.2" x2="264.8" y2="167.2"/>
<line class="st2" x1="253.5" y1="149.6" x2="253.5" y2="167.2"/>
<line class="st2" x1="28.4" y1="99.2" x2="28.4" y2="120"/>
<line class="st2" x1="27.1" y1="99.2" x2="27.1" y2="120"/>
<line class="st2" x1="25.7" y1="99.2" x2="25.7" y2="120"/>
<line class="st2" x1="24.4" y1="99.2" x2="24.4" y2="120"/>
<line class="st2" x1="23.1" y1="99.2" x2="23.1" y2="120"/>
<line class="st2" x1="21.7" y1="99.2" x2="21.7" y2="120"/>
<line class="st2" x1="20.4" y1="99.2" x2="20.4" y2="120"/>
<line class="st2" x1="19" y1="99.2" x2="19" y2="120"/>
<line class="st2" x1="17.7" y1="99.2" x2="17.7" y2="120"/>
<line class="st2" x1="16.3" y1="99.2" x2="16.3" y2="120"/>
<line class="st2" x1="15" y1="99.2" x2="15" y2="120"/>
<line class="st2" x1="13.6" y1="99.2" x2="13.6" y2="120"/>
<line class="st2" x1="12.3" y1="99.2" x2="12.3" y2="120"/>
<polyline class="st2" points="10.9,99.2 10.9,109.6 10.9,120 "/>
<line class="st2" x1="28.4" y1="109.6" x2="10.9" y2="109.6"/>
<g>
	<rect x="242.3" y="132.2" class="st1" width="0.3" height="44.8"/>
</g>
<path class="st3" d="M173.1,103.2"/>
<polyline class="st2" points="-2.8,131.1 139.9,131.1 139.9,147 139.9,184.1 "/>
<polyline class="st2" points="173,103.2 173,119.5 173,120 41,120 -2.8,120 "/>
<line class="st4" x1="41" y1="120" x2="41" y2="99.2"/>
<line class="st2" x1="100.4" y1="120" x2="100.4" y2="99.2"/>
<line class="st2" x1="131.6" y1="120" x2="131.6" y2="99.2"/>
<polyline class="st2" points="242.4,149.6 199.3,149.6 199.3,177 "/>
<polyline class="st2" points="173,120 201.8,120 201.8,103.2 "/>
<line class="st2" x1="201.8" y1="115.1" x2="242" y2="115.1"/>
<polyline class="st2" points="199.3,149.6 199.3,131.1 139.9,131.1 "/>
<line class="st2" x1="152.4" y1="120" x2="152.4" y2="99.2"/>
<line class="st2" x1="31.2" y1="131.1" x2="31.2" y2="184.1"/>
<line class="st2" x1="79.6" y1="131.1" x2="79.6" y2="184.1"/>
<line class="st2" x1="139.9" y1="131.1" x2="139.9" y2="184.1"/>
<polygon class="st3" points="158.1,177 242.3,177 242.3,184.8 264.8,184.8 264.8,99.2 242,99.2 242,103.2 173.1,103.2 173.1,99.2 
	-2.8,99.2 -2.8,184.1 158.1,184.1 158.1,177.4 "/>
</svg>
