<?xml version="1.0" encoding="utf-8"?>
<!-- Generator: Adobe Illustrator 19.1.0, SVG Export Plug-In . SVG Version: 6.00 Build 0)  -->
<svg version="1.1" id="Layer_1" xmlns="http://www.w3.org/2000/svg" xmlns:xlink="http://www.w3.org/1999/xlink" x="0px" y="0px"
	 viewBox="0 0 700 150" style="enable-background:new 0 0 700 150;" xml:space="preserve">
<style type="text/css">
	.st0{clip-path:url(#SVGID_2_);}
	.st1{fill:#FFFFFF;stroke:#CCCCCC;stroke-width:0.1;stroke-miterlimit:10;}
	.st2{fill:none;stroke:#CCCCCC;stroke-width:0.1;stroke-miterlimit:10;}
	.st3{fill:#4D4C4C;}
	.st4{fill:none;stroke:#4C4C4C;stroke-width:0.4;stroke-miterlimit:10;}
	.st5{fill:none;stroke:#000000;stroke-width:0.7;stroke-miterlimit:10;}
	.st6{fill:#4C4C4C;}
	.st7{fill:none;stroke:#000000;stroke-width:0.6;stroke-miterlimit:10;}
	.st8{fill:#FFFFFF;}
</style>
<g>
	<defs>
		<rect id="SVGID_1_" x="315.7" y="87" width="64.3" height="40.7"/>
	</defs>
	<use xlink:href="#SVGID_1_"  style="overflow:visible;fill:#FFFFFF;"/>
	<clipPath id="SVGID_2_">
		<use xlink:href="#SVGID_1_"  style="overflow:visible;"/>
	</clipPath>
	<g class="st0">
		<line class="st1" x1="315.8" y1="125.2" x2="354.1" y2="86.9"/>
		<line class="st1" x1="312.2" y1="130.8" x2="357.1" y2="85.9"/>
		<line class="st1" x1="314.2" y1="130.8" x2="359.1" y2="85.9"/>
		<line class="st1" x1="317.2" y1="129.8" x2="362.1" y2="84.9"/>
		<line class="st1" x1="318.2" y1="130.8" x2="363.1" y2="85.9"/>
		<line class="st1" x1="321.2" y1="129.8" x2="366.1" y2="84.9"/>
		<line class="st1" x1="323.2" y1="129.8" x2="368.1" y2="84.9"/>
		<line class="st1" x1="326.2" y1="128.8" x2="371.1" y2="83.9"/>
		<line class="st1" x1="325.2" y1="131.8" x2="370.1" y2="86.9"/>
		<line class="st1" x1="328.2" y1="130.8" x2="373.1" y2="85.9"/>
		<line class="st1" x1="330.2" y1="130.8" x2="375.1" y2="85.9"/>
		<line class="st1" x1="333.2" y1="129.8" x2="378.1" y2="84.9"/>
		<line class="st1" x1="334.2" y1="130.8" x2="379.1" y2="85.9"/>
		<line class="st1" x1="337.2" y1="129.8" x2="382.1" y2="84.9"/>
		<line class="st1" x1="339.2" y1="129.8" x2="384.1" y2="84.9"/>
		<line class="st1" x1="342.2" y1="128.8" x2="387.1" y2="83.9"/>
		<line class="st1" x1="343.8" y1="129.2" x2="382.1" y2="90.9"/>
		<line class="st1" x1="346.8" y1="128.2" x2="385.1" y2="89.9"/>
		<line class="st1" x1="348.8" y1="128.2" x2="387.1" y2="89.9"/>
		<line class="st1" x1="351.8" y1="127.2" x2="390.1" y2="88.9"/>
		<line class="st1" x1="352.8" y1="128.2" x2="391.1" y2="89.9"/>
		<line class="st1" x1="355.8" y1="127.2" x2="394.1" y2="88.9"/>
		<line class="st1" x1="357.8" y1="127.2" x2="396.1" y2="88.9"/>
		<line class="st1" x1="359.7" y1="127.3" x2="399.1" y2="87.9"/>
		<line class="st1" x1="361.4" y1="127.6" x2="398.1" y2="90.9"/>
		<line class="st1" x1="363.4" y1="127.6" x2="401.1" y2="89.9"/>
		<line class="st1" x1="365.3" y1="127.7" x2="403.1" y2="89.9"/>
		<line class="st1" x1="367.3" y1="127.7" x2="406.1" y2="88.9"/>
		<line class="st1" x1="369.4" y1="127.6" x2="407.1" y2="89.9"/>
		<line class="st1" x1="371.8" y1="127.2" x2="410.1" y2="88.9"/>
		<line class="st1" x1="373.8" y1="127.2" x2="412.1" y2="88.9"/>
		<line class="st1" x1="375.6" y1="127.4" x2="415.1" y2="87.9"/>
		<line class="st1" x1="292.8" y1="122.2" x2="331.1" y2="83.9"/>
		<line class="st1" x1="295.8" y1="121.2" x2="334.1" y2="82.9"/>
		<line class="st1" x1="297.8" y1="121.2" x2="336.1" y2="82.9"/>
		<line class="st1" x1="300.8" y1="120.2" x2="339.1" y2="81.9"/>
		<line class="st1" x1="301.8" y1="121.2" x2="340.1" y2="82.9"/>
		<line class="st1" x1="304.8" y1="120.2" x2="343.1" y2="81.9"/>
		<line class="st1" x1="306.8" y1="120.2" x2="345.1" y2="81.9"/>
		<line class="st1" x1="309.8" y1="119.2" x2="348.1" y2="80.9"/>
		<line class="st1" x1="308.8" y1="122.2" x2="347.1" y2="83.9"/>
		<line class="st1" x1="311.8" y1="121.2" x2="350.1" y2="82.9"/>
		<line class="st1" x1="313.8" y1="121.2" x2="352.1" y2="82.9"/>
		<line class="st1" x1="315.8" y1="121.2" x2="355.1" y2="81.9"/>
		<line class="st1" x1="315.8" y1="123.2" x2="356.1" y2="82.9"/>
		<line class="st1" x1="290.8" y1="114.2" x2="329.1" y2="75.9"/>
		<line class="st1" x1="293.8" y1="113.2" x2="332.1" y2="74.9"/>
		<line class="st1" x1="294.8" y1="114.2" x2="333.1" y2="75.9"/>
		<line class="st1" x1="297.8" y1="113.2" x2="336.1" y2="74.9"/>
		<line class="st1" x1="299.8" y1="113.2" x2="338.1" y2="74.9"/>
		<line class="st1" x1="377.4" y1="127.6" x2="379.8" y2="125.2"/>
	</g>
</g>
<g>
	<line class="st2" x1="323.6" y1="35.8" x2="341.2" y2="18.2"/>
	<line class="st2" x1="327.6" y1="35.8" x2="345.2" y2="18.2"/>
	<line class="st2" x1="325.6" y1="35.8" x2="343.2" y2="18.2"/>
	<line class="st2" x1="329.6" y1="35.8" x2="347.2" y2="18.2"/>
	<line class="st2" x1="331.6" y1="35.8" x2="349.2" y2="18.2"/>
	<line class="st2" x1="335.6" y1="35.8" x2="353.2" y2="18.2"/>
	<line class="st2" x1="339.6" y1="35.8" x2="357.2" y2="18.2"/>
	<line class="st2" x1="333.6" y1="35.8" x2="351.2" y2="18.2"/>
	<line class="st2" x1="337.6" y1="35.8" x2="355.2" y2="18.2"/>
	<line class="st2" x1="341.6" y1="35.8" x2="359.2" y2="18.2"/>
	<line class="st2" x1="343.6" y1="35.8" x2="361.2" y2="18.2"/>
	<line class="st2" x1="347.6" y1="35.8" x2="365.2" y2="18.2"/>
	<line class="st2" x1="351.6" y1="35.8" x2="369.2" y2="18.2"/>
	<line class="st2" x1="345.6" y1="35.8" x2="363.2" y2="18.2"/>
	<line class="st2" x1="349.6" y1="35.8" x2="367.2" y2="18.2"/>
	<line class="st2" x1="353.6" y1="35.8" x2="371.2" y2="18.2"/>
	<line class="st2" x1="355.6" y1="35.8" x2="373.2" y2="18.2"/>
	<line class="st2" x1="359.6" y1="35.8" x2="377.2" y2="18.2"/>
	<line class="st2" x1="363.6" y1="35.8" x2="379.3" y2="20.1"/>
	<line class="st2" x1="357.6" y1="35.8" x2="375.2" y2="18.2"/>
	<line class="st2" x1="361.6" y1="35.8" x2="379.2" y2="18.2"/>
	<line class="st2" x1="365.6" y1="35.8" x2="379.3" y2="22.1"/>
	<line class="st2" x1="367.6" y1="35.8" x2="379.4" y2="24"/>
	<line class="st2" x1="369.6" y1="35.8" x2="379.3" y2="26.1"/>
	<line class="st2" x1="371.6" y1="35.8" x2="379.3" y2="28.1"/>
	<line class="st2" x1="375.6" y1="35.8" x2="379.2" y2="32.2"/>
	<line class="st2" x1="373.6" y1="35.8" x2="379.4" y2="30"/>
	<line class="st2" x1="377.6" y1="35.8" x2="379.2" y2="34.2"/>
</g>
<line class="st2" x1="319.6" y1="35.8" x2="337.2" y2="18.2"/>
<line class="st2" x1="321.6" y1="35.8" x2="339.2" y2="18.2"/>
<line class="st2" x1="319.5" y1="19.9" x2="321.2" y2="18.2"/>
<line class="st2" x1="319.5" y1="23.9" x2="325.2" y2="18.2"/>
<line class="st2" x1="319.6" y1="27.8" x2="329.2" y2="18.2"/>
<line class="st2" x1="319.6" y1="21.8" x2="323.2" y2="18.2"/>
<line class="st2" x1="319.6" y1="25.8" x2="327.2" y2="18.2"/>
<line class="st2" x1="319.6" y1="29.8" x2="331.2" y2="18.2"/>
<line class="st2" x1="319.5" y1="31.9" x2="333.2" y2="18.2"/>
<line class="st2" x1="319.6" y1="33.8" x2="335.2" y2="18.2"/>
<g>
	<rect x="379.1" y="18.2" class="st3" width="0.4" height="24.3"/>
</g>
<polyline class="st4" points="393,12.2 393,42.4 413,42.4 "/>
<line class="st4" x1="379.8" y1="87" x2="413" y2="87"/>
<line class="st4" x1="379.8" y1="89" x2="413" y2="89"/>
<line class="st4" x1="379.8" y1="91" x2="413" y2="91"/>
<line class="st4" x1="379.8" y1="93" x2="413" y2="93"/>
<line class="st4" x1="379.8" y1="95" x2="413" y2="95"/>
<line class="st4" x1="379.8" y1="97" x2="413" y2="97"/>
<line class="st4" x1="379.8" y1="99" x2="413" y2="99"/>
<line class="st4" x1="379.8" y1="101" x2="413" y2="101"/>
<line class="st4" x1="379.8" y1="103" x2="413" y2="103"/>
<line class="st4" x1="379.8" y1="105" x2="413" y2="105"/>
<line class="st4" x1="379.8" y1="107" x2="413" y2="107"/>
<line class="st4" x1="379.8" y1="109" x2="413" y2="109"/>
<line class="st4" x1="379.8" y1="111" x2="413" y2="111"/>
<line class="st4" x1="379.8" y1="113" x2="413" y2="113"/>
<line class="st4" x1="396.4" y1="87" x2="396.4" y2="113"/>
<line class="st4" x1="62.4" y1="12.2" x2="62.4" y2="43"/>
<line class="st4" x1="60.4" y1="12.2" x2="60.4" y2="43"/>
<line class="st4" x1="58.4" y1="12.2" x2="58.4" y2="43"/>
<line class="st4" x1="56.4" y1="12.2" x2="56.4" y2="43"/>
<line class="st4" x1="54.4" y1="12.2" x2="54.4" y2="43"/>
<line class="st4" x1="52.4" y1="12.2" x2="52.4" y2="43"/>
<line class="st4" x1="50.4" y1="12.2" x2="50.4" y2="43"/>
<line class="st4" x1="48.4" y1="12.2" x2="48.4" y2="43"/>
<line class="st4" x1="46.4" y1="12.2" x2="46.4" y2="43"/>
<line class="st4" x1="44.4" y1="12.2" x2="44.4" y2="43"/>
<line class="st4" x1="42.4" y1="12.2" x2="42.4" y2="43"/>
<line class="st4" x1="40.4" y1="12.2" x2="40.4" y2="43"/>
<line class="st4" x1="38.4" y1="12.2" x2="38.4" y2="43"/>
<polyline class="st4" points="36.4,12.2 36.4,27.5 36.4,43 "/>
<line class="st4" x1="62.4" y1="27.5" x2="36.4" y2="27.5"/>
<g>
	<rect x="379.6" y="61.2" class="st3" width="0.4" height="66.5"/>
</g>
<path class="st5" d="M277,18.2"/>
<polyline class="st4" points="16,59.5 258.7,59.5 258.7,83.1 258.7,127.7 "/>
<polyline class="st4" points="276.9,18.2 276.9,42.3 276.9,43 81,43 16,43 "/>
<line class="st4" x1="81" y1="43" x2="81" y2="12.2"/>
<line class="st4" x1="131.1" y1="43" x2="131.1" y2="12.2"/>
<line class="st4" x1="182.6" y1="43" x2="182.6" y2="12.2"/>
<line class="st4" x1="235.5" y1="43" x2="235.5" y2="12.2"/>
<g>
	<path class="st6" d="M315.4,83.1v44.2h-56.5V83.1H315.4 M315.8,82.7h-57.2v45h57.2V82.7L315.8,82.7z"/>
</g>
<line class="st4" x1="315.8" y1="87" x2="379.8" y2="87"/>
<polyline class="st4" points="276.9,43 319.6,43 319.6,18.2 "/>
<line class="st4" x1="319.6" y1="35.8" x2="379.2" y2="35.8"/>
<line class="st4" x1="459.5" y1="32.3" x2="459.5" y2="11.1"/>
<line class="st4" x1="461.5" y1="32.3" x2="461.5" y2="11.1"/>
<line class="st4" x1="463.5" y1="32.3" x2="463.5" y2="11.1"/>
<line class="st4" x1="465.5" y1="32.3" x2="465.5" y2="11.1"/>
<line class="st4" x1="467.5" y1="32.3" x2="467.5" y2="11.1"/>
<line class="st4" x1="469.5" y1="32.3" x2="469.5" y2="11.1"/>
<line class="st4" x1="471.5" y1="32.3" x2="471.5" y2="11.1"/>
<line class="st4" x1="473.5" y1="32.3" x2="473.5" y2="11.1"/>
<line class="st4" x1="475.5" y1="32.3" x2="475.5" y2="11.1"/>
<line class="st4" x1="477.5" y1="32.3" x2="477.5" y2="11.1"/>
<line class="st4" x1="479.5" y1="32.3" x2="479.5" y2="11.1"/>
<line class="st4" x1="481.5" y1="32.3" x2="481.5" y2="11.1"/>
<line class="st4" x1="483.5" y1="32.3" x2="483.5" y2="11.1"/>
<line class="st4" x1="485.5" y1="32.3" x2="485.5" y2="11.1"/>
<polygon class="st7" points="254.7,127.7 379.7,127.7 379.7,139.2 413,139.2 413,12.2 379.2,12.2 379.2,18.2 277,18.2 277,12.2 
	16,12.2 16,138.2 254.7,138.2 254.7,128.2 "/>
<polyline class="st4" points="550.7,18.2 550.7,50.7 682.5,50.7 "/>
<line class="st4" x1="582.2" y1="18.2" x2="582.2" y2="50.7"/>
<line class="st4" x1="615.1" y1="18.2" x2="615.1" y2="50.7"/>
<polyline class="st4" points="646.5,139.2 646.5,68.2 552.1,68.2 552.1,139.2 "/>
<line class="st4" x1="444.7" y1="68.2" x2="552.1" y2="68.2"/>
<line class="st4" x1="646.5" y1="68.2" x2="682.5" y2="68.2"/>
<polyline class="st4" points="444.7,32.2 505.8,32.2 505.8,10.8 "/>
<polyline class="st7" points="413,68.3 444.7,68.3 444.7,139.2 682.5,139.2 682.5,18.2 547.7,18.2 547.7,10.8 444.7,10.8 
	444.7,42.3 413,42.3 "/>
<rect x="407.4" y="42.6" class="st8" width="8.4" height="25.4"/>
</svg>
