<?xml version="1.0" encoding="utf-8"?>
<!-- Generator: Adobe Illustrator 19.1.0, SVG Export Plug-In . SVG Version: 6.00 Build 0)  -->
<svg version="1.1" id="Layer_1" xmlns="http://www.w3.org/2000/svg" xmlns:xlink="http://www.w3.org/1999/xlink" x="0px" y="0px"
	 viewBox="0 0 271.7 90.6" style="enable-background:new 0 0 271.7 90.6;" xml:space="preserve">
<style type="text/css">
	.st0{fill:none;stroke:#4C4C4C;stroke-width:0.4;stroke-miterlimit:10;}
	.st1{fill:#4D4C4C;}
	.st2{fill:none;stroke:#4D4C4C;stroke-width:0.4;stroke-miterlimit:10;}
	.st3{fill:none;stroke:#000000;stroke-width:0.6;stroke-miterlimit:10;}
</style>
<line class="st0" x1="45.2" y1="4.3" x2="45.2" y2="87.8"/>
<g>
	<path d="M165.6,65.1c-0.1,1.2-0.8,4.4-5.1,4.6v-4.6H165.6 M160.6,70.5c4.2,0.2,5,3.4,5.1,4.6h-5.1V70.5 M166.1,64.7h-5.9v5.4
		C166.1,70.1,166.1,64.7,166.1,64.7L166.1,64.7z M160.2,70.1v5.4h5.9C166.1,75.5,166.1,70.1,160.2,70.1L160.2,70.1z"/>
</g>
<g>
	<path d="M270.5,29.6c-0.1,1.2-0.9,4.4-5.1,4.6v-4.6H270.5 M265.4,35c4.2,0.2,5,3.4,5.1,4.6h-5.1V35 M270.9,29.2H265v5.4
		C270.9,34.6,270.9,29.2,270.9,29.2L270.9,29.2z M265,34.6V40h5.9C270.9,40,270.9,34.6,265,34.6L265,34.6z"/>
</g>
<g>
	<path d="M239.1,2.9V8h-4.6C234.7,3.7,237.9,3,239.1,2.9 M229.1,2.9c1.2,0.1,4.4,0.9,4.6,5.1h-4.6V2.9 M239.5,2.5c0,0-5.4,0-5.4,5.9
		h5.4V2.5L239.5,2.5z M228.7,2.5v5.9h5.4C234.1,2.5,228.7,2.5,228.7,2.5L228.7,2.5z"/>
</g>
<g>
	<rect x="242.7" y="8.3" class="st1" width="0.3" height="16.1"/>
</g>
<polyline class="st2" points="251.8,4.3 251.8,24.3 265.1,24.3 "/>
<line class="st0" x1="243.1" y1="53.9" x2="265.1" y2="53.9"/>
<line class="st0" x1="243.1" y1="55.2" x2="265.1" y2="55.2"/>
<line class="st0" x1="243.1" y1="56.5" x2="265.1" y2="56.5"/>
<line class="st0" x1="243.1" y1="57.9" x2="265.1" y2="57.9"/>
<line class="st0" x1="243.1" y1="59.2" x2="265.1" y2="59.2"/>
<line class="st0" x1="243.1" y1="60.5" x2="265.1" y2="60.5"/>
<line class="st0" x1="243.1" y1="61.8" x2="265.1" y2="61.8"/>
<line class="st0" x1="243.1" y1="63.2" x2="265.1" y2="63.2"/>
<line class="st0" x1="243.1" y1="64.5" x2="265.1" y2="64.5"/>
<line class="st0" x1="243.1" y1="65.8" x2="265.1" y2="65.8"/>
<line class="st0" x1="243.1" y1="67.1" x2="265.1" y2="67.1"/>
<line class="st0" x1="243.1" y1="68.5" x2="265.1" y2="68.5"/>
<line class="st0" x1="243.1" y1="69.8" x2="265.1" y2="69.8"/>
<line class="st0" x1="243.1" y1="71.1" x2="265.1" y2="71.1"/>
<line class="st0" x1="254.1" y1="53.9" x2="254.1" y2="71.1"/>
<polyline class="st0" points="160.2,42 179.4,42 179.4,46.1 179.4,53 "/>
<path class="st0" d="M227.4,46.1h-48H227.4z"/>
<line class="st0" x1="227.4" y1="46.1" x2="243" y2="46.1"/>
<line class="st0" x1="227.4" y1="47.4" x2="243" y2="47.4"/>
<line class="st0" x1="227.4" y1="48.7" x2="243" y2="48.7"/>
<line class="st0" x1="227.4" y1="50" x2="243" y2="50"/>
<line class="st0" x1="227.4" y1="51.4" x2="243" y2="51.4"/>
<line class="st0" x1="227.4" y1="52.7" x2="243" y2="52.7"/>
<line class="st0" x1="227.4" y1="46.1" x2="227.4" y2="52.8"/>
<g>
	<path d="M239.2,81v5.1c-1.2-0.1-4.4-0.8-4.6-5.1H239.2 M233.8,81c-0.2,4.2-3.4,5-4.6,5.1V81H233.8 M239.6,80.6h-5.4
		c0,5.9,5.4,5.9,5.4,5.9V80.6L239.6,80.6z M234.2,80.6h-5.4v5.9C228.8,86.5,234.2,86.5,234.2,80.6L234.2,80.6z"/>
</g>
<line class="st0" x1="32.8" y1="4.3" x2="32.8" y2="24.7"/>
<line class="st0" x1="31.5" y1="4.3" x2="31.5" y2="24.7"/>
<line class="st0" x1="30.2" y1="4.3" x2="30.2" y2="24.7"/>
<line class="st0" x1="28.8" y1="4.3" x2="28.8" y2="24.7"/>
<line class="st0" x1="27.5" y1="4.3" x2="27.5" y2="24.7"/>
<line class="st0" x1="26.2" y1="4.3" x2="26.2" y2="24.7"/>
<line class="st0" x1="24.9" y1="4.3" x2="24.9" y2="24.7"/>
<line class="st0" x1="23.5" y1="4.3" x2="23.5" y2="24.7"/>
<line class="st0" x1="22.2" y1="4.3" x2="22.2" y2="24.7"/>
<line class="st0" x1="20.9" y1="4.3" x2="20.9" y2="24.7"/>
<line class="st0" x1="19.6" y1="4.3" x2="19.6" y2="24.7"/>
<line class="st0" x1="18.2" y1="4.3" x2="18.2" y2="24.7"/>
<line class="st0" x1="16.9" y1="4.3" x2="16.9" y2="24.7"/>
<polyline class="st0" points="15.6,4.3 15.6,14.5 15.6,24.7 "/>
<line class="st0" x1="32.8" y1="14.5" x2="15.6" y2="14.5"/>
<path class="st0" d="M45.2,12.1V6.6h5.9C51.1,6.6,51.1,12.1,45.2,12.1"/>
<g>
	<rect x="243" y="36.8" class="st1" width="0.3" height="43.9"/>
</g>
<polyline class="st3" points="160.2,80.8 160.2,87.8 2.1,87.8 2.1,4.3 175,4.3 175,8.3 242.7,8.3 242.7,4.3 265.1,4.3 265.1,88.4 
	243,88.4 243,80.8 160.2,80.8 160.2,8.3 175,8.3 "/>
<line class="st0" x1="2.1" y1="24.7" x2="45.2" y2="24.7"/>
</svg>
