<?xml version="1.0" encoding="utf-8"?>
<!-- Generator: Adobe Illustrator 19.1.0, SVG Export Plug-In . SVG Version: 6.00 Build 0)  -->
<svg version="1.1" id="Layer_1" xmlns="http://www.w3.org/2000/svg" xmlns:xlink="http://www.w3.org/1999/xlink" x="0px" y="0px"
	 viewBox="-5 96.9 271.7 90.6" style="enable-background:new -5 96.9 271.7 90.6;" xml:space="preserve">
<style type="text/css">
	.st0{clip-path:url(#SVGID_2_);}
	.st1{fill:#FFFFFF;stroke:#CCCCCC;stroke-width:0.1;stroke-miterlimit:10;}
	.st2{fill:none;stroke:#CCCCCC;stroke-width:0.1;stroke-miterlimit:10;}
	.st3{fill:#4D4C4C;}
	.st4{fill:none;stroke:#4C4C4C;stroke-width:0.4;stroke-miterlimit:10;}
	.st5{fill:none;stroke:#000000;stroke-width:0.7;stroke-miterlimit:10;}
	.st6{fill:none;stroke:#000000;stroke-width:0.4;stroke-miterlimit:10;}
	.st7{fill:none;stroke:#000000;stroke-width:0.6;stroke-miterlimit:10;}
</style>
<g>
	<defs>
		<rect id="SVGID_1_" x="199.2" y="149.5" width="43.5" height="27.5"/>
	</defs>
	<use xlink:href="#SVGID_1_"  style="overflow:visible;fill:#FFFFFF;"/>
	<clipPath id="SVGID_2_">
		<use xlink:href="#SVGID_1_"  style="overflow:visible;"/>
	</clipPath>
	<g class="st0">
		<line class="st1" x1="199.3" y1="175.3" x2="225.2" y2="149.4"/>
		<line class="st1" x1="196.9" y1="179.1" x2="227.2" y2="148.7"/>
		<line class="st1" x1="198.3" y1="179.1" x2="228.6" y2="148.7"/>
		<line class="st1" x1="200.3" y1="178.4" x2="230.6" y2="148.1"/>
		<line class="st1" x1="201" y1="179.1" x2="231.3" y2="148.7"/>
		<line class="st1" x1="203" y1="178.4" x2="233.3" y2="148.1"/>
		<line class="st1" x1="204.4" y1="178.4" x2="234.7" y2="148.1"/>
		<line class="st1" x1="206.4" y1="177.7" x2="236.7" y2="147.4"/>
		<line class="st1" x1="205.7" y1="179.7" x2="236" y2="149.4"/>
		<line class="st1" x1="207.7" y1="179.1" x2="238.1" y2="148.7"/>
		<line class="st1" x1="209.1" y1="179.1" x2="239.4" y2="148.7"/>
		<line class="st1" x1="211.1" y1="178.4" x2="241.4" y2="148.1"/>
		<line class="st1" x1="211.8" y1="179.1" x2="242.1" y2="148.7"/>
		<line class="st1" x1="213.8" y1="178.4" x2="244.1" y2="148.1"/>
		<line class="st1" x1="215.2" y1="178.4" x2="245.5" y2="148.1"/>
		<line class="st1" x1="217.2" y1="177.7" x2="247.5" y2="147.4"/>
		<line class="st1" x1="218.3" y1="178" x2="244.1" y2="152.1"/>
		<line class="st1" x1="220.3" y1="177.3" x2="246.2" y2="151.5"/>
		<line class="st1" x1="221.6" y1="177.3" x2="247.5" y2="151.5"/>
		<line class="st1" x1="223.7" y1="176.6" x2="249.5" y2="150.8"/>
		<line class="st1" x1="224.3" y1="177.3" x2="250.2" y2="151.5"/>
		<line class="st1" x1="226.4" y1="176.6" x2="252.2" y2="150.8"/>
		<line class="st1" x1="227.7" y1="176.6" x2="253.6" y2="150.8"/>
		<line class="st1" x1="229" y1="176.7" x2="255.6" y2="150.1"/>
		<line class="st1" x1="230.1" y1="176.9" x2="254.9" y2="152.1"/>
		<line class="st1" x1="231.5" y1="176.9" x2="257" y2="151.5"/>
		<line class="st1" x1="232.8" y1="177" x2="258.3" y2="151.5"/>
		<line class="st1" x1="234.1" y1="177" x2="260.4" y2="150.8"/>
		<line class="st1" x1="235.5" y1="176.9" x2="261" y2="151.5"/>
		<line class="st1" x1="237.2" y1="176.6" x2="263.1" y2="150.8"/>
		<line class="st1" x1="238.5" y1="176.6" x2="264.4" y2="150.8"/>
		<line class="st1" x1="239.8" y1="176.8" x2="266.4" y2="150.1"/>
		<line class="st1" x1="183.8" y1="173.3" x2="209.7" y2="147.4"/>
		<line class="st1" x1="185.8" y1="172.6" x2="211.7" y2="146.7"/>
		<line class="st1" x1="187.2" y1="172.6" x2="213.1" y2="146.7"/>
		<line class="st1" x1="189.2" y1="171.9" x2="215.1" y2="146"/>
		<line class="st1" x1="189.9" y1="172.6" x2="215.8" y2="146.7"/>
		<line class="st1" x1="191.9" y1="171.9" x2="217.8" y2="146"/>
		<line class="st1" x1="193.3" y1="171.9" x2="219.1" y2="146"/>
		<line class="st1" x1="195.3" y1="171.2" x2="221.2" y2="145.4"/>
		<line class="st1" x1="194.6" y1="173.3" x2="220.5" y2="147.4"/>
		<line class="st1" x1="196.6" y1="172.6" x2="222.5" y2="146.7"/>
		<line class="st1" x1="198" y1="172.6" x2="223.9" y2="146.7"/>
		<line class="st1" x1="199.3" y1="172.6" x2="225.9" y2="146"/>
		<line class="st1" x1="199.3" y1="173.9" x2="226.6" y2="146.7"/>
		<line class="st1" x1="182.5" y1="167.9" x2="208.3" y2="142"/>
		<line class="st1" x1="184.5" y1="167.2" x2="210.3" y2="141.3"/>
		<line class="st1" x1="185.2" y1="167.9" x2="211" y2="142"/>
		<line class="st1" x1="187.2" y1="167.2" x2="213.1" y2="141.3"/>
		<line class="st1" x1="188.5" y1="167.2" x2="214.4" y2="141.3"/>
		<line class="st1" x1="241" y1="176.9" x2="242.6" y2="175.3"/>
	</g>
</g>
<g>
	<line class="st2" x1="204.6" y1="114.9" x2="216.5" y2="102.9"/>
	<line class="st2" x1="207.3" y1="114.9" x2="219.2" y2="102.9"/>
	<line class="st2" x1="206" y1="114.9" x2="217.9" y2="102.9"/>
	<line class="st2" x1="208.7" y1="114.9" x2="220.6" y2="102.9"/>
	<line class="st2" x1="210" y1="114.9" x2="221.9" y2="102.9"/>
	<line class="st2" x1="212.7" y1="114.9" x2="224.7" y2="102.9"/>
	<line class="st2" x1="215.4" y1="114.9" x2="227.4" y2="102.9"/>
	<line class="st2" x1="211.4" y1="114.9" x2="223.3" y2="102.9"/>
	<line class="st2" x1="214.1" y1="114.9" x2="226" y2="102.9"/>
	<line class="st2" x1="216.8" y1="114.9" x2="228.7" y2="102.9"/>
	<line class="st2" x1="218.1" y1="114.9" x2="230.1" y2="102.9"/>
	<line class="st2" x1="220.8" y1="114.9" x2="232.8" y2="102.9"/>
	<line class="st2" x1="223.5" y1="114.9" x2="235.5" y2="102.9"/>
	<line class="st2" x1="219.5" y1="114.9" x2="231.4" y2="102.9"/>
	<line class="st2" x1="222.2" y1="114.9" x2="234.1" y2="102.9"/>
	<line class="st2" x1="224.9" y1="114.9" x2="236.8" y2="102.9"/>
	<line class="st2" x1="226.2" y1="114.9" x2="238.2" y2="102.9"/>
	<line class="st2" x1="228.9" y1="114.9" x2="240.9" y2="102.9"/>
	<line class="st2" x1="231.6" y1="114.9" x2="242.3" y2="104.2"/>
	<line class="st2" x1="227.6" y1="114.9" x2="239.5" y2="102.9"/>
	<line class="st2" x1="230.3" y1="114.9" x2="242.2" y2="102.9"/>
	<line class="st2" x1="233" y1="114.9" x2="242.3" y2="105.5"/>
	<line class="st2" x1="234.3" y1="114.9" x2="242.3" y2="106.9"/>
	<line class="st2" x1="235.7" y1="114.9" x2="242.3" y2="108.2"/>
	<line class="st2" x1="237" y1="114.9" x2="242.3" y2="109.6"/>
	<line class="st2" x1="239.7" y1="114.9" x2="242.2" y2="112.4"/>
	<line class="st2" x1="238.4" y1="114.9" x2="242.3" y2="110.9"/>
	<line class="st2" x1="241.1" y1="114.9" x2="242.2" y2="113.8"/>
</g>
<line class="st2" x1="201.9" y1="114.9" x2="213.8" y2="102.9"/>
<line class="st2" x1="203.3" y1="114.9" x2="215.2" y2="102.9"/>
<line class="st2" x1="201.9" y1="104.1" x2="203" y2="102.9"/>
<line class="st2" x1="201.8" y1="106.8" x2="205.7" y2="102.9"/>
<line class="st2" x1="201.9" y1="109.4" x2="208.4" y2="102.9"/>
<line class="st2" x1="201.9" y1="105.4" x2="204.4" y2="102.9"/>
<line class="st2" x1="201.9" y1="108.1" x2="207.1" y2="102.9"/>
<line class="st2" x1="201.9" y1="110.8" x2="209.8" y2="102.9"/>
<line class="st2" x1="201.9" y1="112.2" x2="211.1" y2="102.9"/>
<line class="st2" x1="201.9" y1="113.5" x2="212.5" y2="102.9"/>
<g>
	<rect x="242.2" y="103" class="st3" width="0.3" height="16.4"/>
</g>
<polyline class="st4" points="251.5,98.9 251.5,119.2 265,119.2 "/>
<line class="st4" x1="242.6" y1="149.4" x2="265" y2="149.4"/>
<line class="st4" x1="242.6" y1="150.8" x2="265" y2="150.8"/>
<line class="st4" x1="242.6" y1="152.1" x2="265" y2="152.1"/>
<line class="st4" x1="242.6" y1="153.5" x2="265" y2="153.5"/>
<line class="st4" x1="242.6" y1="154.8" x2="265" y2="154.8"/>
<line class="st4" x1="242.6" y1="156.2" x2="265" y2="156.2"/>
<line class="st4" x1="242.6" y1="157.5" x2="265" y2="157.5"/>
<line class="st4" x1="242.6" y1="158.9" x2="265" y2="158.9"/>
<line class="st4" x1="242.6" y1="160.2" x2="265" y2="160.2"/>
<line class="st4" x1="242.6" y1="161.6" x2="265" y2="161.6"/>
<line class="st4" x1="242.6" y1="162.9" x2="265" y2="162.9"/>
<line class="st4" x1="242.6" y1="164.3" x2="265" y2="164.3"/>
<line class="st4" x1="242.6" y1="165.6" x2="265" y2="165.6"/>
<line class="st4" x1="242.6" y1="167" x2="265" y2="167"/>
<line class="st4" x1="253.8" y1="149.4" x2="253.8" y2="167"/>
<line class="st4" x1="28.1" y1="98.9" x2="28.1" y2="119.7"/>
<line class="st4" x1="26.7" y1="98.9" x2="26.7" y2="119.7"/>
<line class="st4" x1="25.4" y1="98.9" x2="25.4" y2="119.7"/>
<line class="st4" x1="24" y1="98.9" x2="24" y2="119.7"/>
<line class="st4" x1="22.7" y1="98.9" x2="22.7" y2="119.7"/>
<line class="st4" x1="21.3" y1="98.9" x2="21.3" y2="119.7"/>
<line class="st4" x1="20" y1="98.9" x2="20" y2="119.7"/>
<line class="st4" x1="18.6" y1="98.9" x2="18.6" y2="119.7"/>
<line class="st4" x1="17.3" y1="98.9" x2="17.3" y2="119.7"/>
<line class="st4" x1="15.9" y1="98.9" x2="15.9" y2="119.7"/>
<line class="st4" x1="14.6" y1="98.9" x2="14.6" y2="119.7"/>
<line class="st4" x1="13.2" y1="98.9" x2="13.2" y2="119.7"/>
<line class="st4" x1="11.9" y1="98.9" x2="11.9" y2="119.7"/>
<polyline class="st4" points="10.5,98.9 10.5,109.2 10.5,119.7 "/>
<line class="st4" x1="28.1" y1="109.2" x2="10.5" y2="109.2"/>
<g>
	<rect x="242.5" y="132" class="st3" width="0.3" height="44.9"/>
</g>
<path class="st5" d="M173.1,102.9"/>
<polyline class="st4" points="-3.2,130.8 139.8,130.8 139.8,146.8 139.8,184 "/>
<polyline class="st4" points="173,102.9 173,119.2 173,119.7 40.7,119.7 -3.2,119.7 "/>
<line class="st6" x1="40.7" y1="119.7" x2="40.7" y2="98.9"/>
<line class="st4" x1="100.2" y1="119.7" x2="100.2" y2="98.9"/>
<line class="st4" x1="131.5" y1="119.7" x2="131.5" y2="98.9"/>
<polyline class="st4" points="242.6,149.4 199.3,149.4 199.3,176.9 "/>
<polyline class="st4" points="173,119.7 201.9,119.7 201.9,102.9 "/>
<line class="st4" x1="201.9" y1="114.9" x2="242.2" y2="114.9"/>
<polygon class="st7" points="158.1,176.9 242.5,176.9 242.5,184.7 265,184.7 265,98.9 242.2,98.9 242.2,102.9 173.1,102.9 
	173.1,98.9 -3.2,98.9 -3.2,184 158.1,184 158.1,177.3 "/>
<polyline class="st4" points="199.3,149.4 199.3,130.8 139.8,130.8 "/>
<line class="st4" x1="152.3" y1="119.7" x2="152.3" y2="98.9"/>
</svg>
