<?xml version="1.0" encoding="utf-8"?>
<!-- Generator: Adobe Illustrator 19.1.0, SVG Export Plug-In . SVG Version: 6.00 Build 0)  -->
<svg version="1.1" id="Layer_1" xmlns="http://www.w3.org/2000/svg" xmlns:xlink="http://www.w3.org/1999/xlink" x="0px" y="0px"
	 viewBox="0 0 462.6 93.5" style="enable-background:new 0 0 462.6 93.5;" xml:space="preserve">
<style type="text/css">
	.st0{clip-path:url(#SVGID_2_);}
	.st1{fill:#FFFFFF;stroke:#CCCCCC;stroke-width:0.1;stroke-miterlimit:10;}
	.st2{fill:none;stroke:#CCCCCC;stroke-width:0.1;stroke-miterlimit:10;}
	.st3{fill:#4D4C4C;}
	.st4{fill:none;stroke:#4C4C4C;stroke-width:0.4;stroke-miterlimit:10;}
	.st5{fill:none;stroke:#000000;stroke-width:0.7;stroke-miterlimit:10;}
	.st6{fill:#4C4C4C;}
	.st7{fill:none;stroke:#000000;stroke-width:0.6;stroke-miterlimit:10;}
	.st8{fill:#FFFFFF;}
</style>
<g>
	<defs>
		<rect id="SVGID_1_" x="207.9" y="54.4" width="44.2" height="28"/>
	</defs>
	<use xlink:href="#SVGID_1_"  style="overflow:visible;fill:#FFFFFF;"/>
	<clipPath id="SVGID_2_">
		<use xlink:href="#SVGID_1_"  style="overflow:visible;"/>
	</clipPath>
	<g class="st0">
		<line class="st1" x1="208" y1="80.6" x2="234.3" y2="54.3"/>
		<line class="st1" x1="205.6" y1="84.5" x2="236.4" y2="53.6"/>
		<line class="st1" x1="206.9" y1="84.5" x2="237.8" y2="53.6"/>
		<line class="st1" x1="209" y1="83.8" x2="239.9" y2="52.9"/>
		<line class="st1" x1="209.7" y1="84.5" x2="240.5" y2="53.6"/>
		<line class="st1" x1="211.7" y1="83.8" x2="242.6" y2="52.9"/>
		<line class="st1" x1="213.1" y1="83.8" x2="244" y2="52.9"/>
		<line class="st1" x1="215.2" y1="83.1" x2="246" y2="52.2"/>
		<line class="st1" x1="214.5" y1="85.2" x2="245.4" y2="54.3"/>
		<line class="st1" x1="216.6" y1="84.5" x2="247.4" y2="53.6"/>
		<line class="st1" x1="217.9" y1="84.5" x2="248.8" y2="53.6"/>
		<line class="st1" x1="220" y1="83.8" x2="250.9" y2="52.9"/>
		<line class="st1" x1="220.7" y1="84.5" x2="251.5" y2="53.6"/>
		<line class="st1" x1="222.8" y1="83.8" x2="253.6" y2="52.9"/>
		<line class="st1" x1="224.1" y1="83.8" x2="255" y2="52.9"/>
		<line class="st1" x1="226.2" y1="83.1" x2="257" y2="52.2"/>
		<line class="st1" x1="227.3" y1="83.4" x2="253.6" y2="57.1"/>
		<line class="st1" x1="229.3" y1="82.7" x2="255.7" y2="56.4"/>
		<line class="st1" x1="230.7" y1="82.7" x2="257" y2="56.4"/>
		<line class="st1" x1="232.8" y1="82" x2="259.1" y2="55.7"/>
		<line class="st1" x1="233.5" y1="82.7" x2="259.8" y2="56.4"/>
		<line class="st1" x1="235.5" y1="82" x2="261.9" y2="55.7"/>
		<line class="st1" x1="236.9" y1="82" x2="263.2" y2="55.7"/>
		<line class="st1" x1="238.2" y1="82.1" x2="265.3" y2="55"/>
		<line class="st1" x1="239.4" y1="82.3" x2="264.6" y2="57.1"/>
		<line class="st1" x1="240.8" y1="82.3" x2="266.7" y2="56.4"/>
		<line class="st1" x1="242" y1="82.4" x2="268" y2="56.4"/>
		<line class="st1" x1="243.4" y1="82.4" x2="270.1" y2="55.7"/>
		<line class="st1" x1="244.9" y1="82.3" x2="270.8" y2="56.4"/>
		<line class="st1" x1="246.5" y1="82" x2="272.9" y2="55.7"/>
		<line class="st1" x1="247.9" y1="82" x2="274.2" y2="55.7"/>
		<line class="st1" x1="249.1" y1="82.1" x2="276.3" y2="55"/>
		<line class="st1" x1="192.2" y1="78.6" x2="218.5" y2="52.2"/>
		<line class="st1" x1="194.3" y1="77.9" x2="220.6" y2="51.6"/>
		<line class="st1" x1="195.6" y1="77.9" x2="222" y2="51.6"/>
		<line class="st1" x1="197.7" y1="77.2" x2="224" y2="50.9"/>
		<line class="st1" x1="198.4" y1="77.9" x2="224.7" y2="51.6"/>
		<line class="st1" x1="200.5" y1="77.2" x2="226.8" y2="50.9"/>
		<line class="st1" x1="201.8" y1="77.2" x2="228.2" y2="50.9"/>
		<line class="st1" x1="203.9" y1="76.5" x2="230.2" y2="50.2"/>
		<line class="st1" x1="203.2" y1="78.6" x2="229.5" y2="52.2"/>
		<line class="st1" x1="205.3" y1="77.9" x2="231.6" y2="51.6"/>
		<line class="st1" x1="206.6" y1="77.9" x2="233" y2="51.6"/>
		<line class="st1" x1="208" y1="77.9" x2="235" y2="50.9"/>
		<line class="st1" x1="208" y1="79.3" x2="235.7" y2="51.6"/>
		<line class="st1" x1="190.8" y1="73.1" x2="217.2" y2="46.7"/>
		<line class="st1" x1="192.9" y1="72.4" x2="219.2" y2="46.1"/>
		<line class="st1" x1="193.6" y1="73.1" x2="219.9" y2="46.7"/>
		<line class="st1" x1="195.6" y1="72.4" x2="222" y2="46.1"/>
		<line class="st1" x1="197" y1="72.4" x2="223.3" y2="46.1"/>
		<line class="st1" x1="250.4" y1="82.3" x2="252" y2="80.6"/>
	</g>
</g>
<g>
	<line class="st2" x1="213.4" y1="19.2" x2="225.5" y2="7"/>
	<line class="st2" x1="216.1" y1="19.2" x2="228.3" y2="7"/>
	<line class="st2" x1="214.7" y1="19.2" x2="226.9" y2="7"/>
	<line class="st2" x1="217.5" y1="19.2" x2="229.6" y2="7"/>
	<line class="st2" x1="218.9" y1="19.2" x2="231" y2="7"/>
	<line class="st2" x1="221.6" y1="19.2" x2="233.8" y2="7"/>
	<line class="st2" x1="224.4" y1="19.2" x2="236.5" y2="7"/>
	<line class="st2" x1="220.2" y1="19.2" x2="232.4" y2="7"/>
	<line class="st2" x1="223" y1="19.2" x2="235.1" y2="7"/>
	<line class="st2" x1="225.7" y1="19.2" x2="237.9" y2="7"/>
	<line class="st2" x1="227.1" y1="19.2" x2="239.3" y2="7"/>
	<line class="st2" x1="229.9" y1="19.2" x2="242" y2="7"/>
	<line class="st2" x1="232.6" y1="19.2" x2="244.8" y2="7"/>
	<line class="st2" x1="228.5" y1="19.2" x2="240.6" y2="7"/>
	<line class="st2" x1="231.2" y1="19.2" x2="243.4" y2="7"/>
	<line class="st2" x1="234" y1="19.2" x2="246.1" y2="7"/>
	<line class="st2" x1="235.4" y1="19.2" x2="247.5" y2="7"/>
	<line class="st2" x1="238.1" y1="19.2" x2="250.3" y2="7"/>
	<line class="st2" x1="240.9" y1="19.2" x2="251.7" y2="8.3"/>
	<line class="st2" x1="236.7" y1="19.2" x2="248.9" y2="7"/>
	<line class="st2" x1="239.5" y1="19.2" x2="251.6" y2="7"/>
	<line class="st2" x1="242.2" y1="19.2" x2="251.7" y2="9.7"/>
	<line class="st2" x1="243.6" y1="19.2" x2="251.7" y2="11.1"/>
	<line class="st2" x1="245" y1="19.2" x2="251.7" y2="12.5"/>
	<line class="st2" x1="246.4" y1="19.2" x2="251.7" y2="13.9"/>
	<line class="st2" x1="249.1" y1="19.2" x2="251.6" y2="16.7"/>
	<line class="st2" x1="247.7" y1="19.2" x2="251.8" y2="15.2"/>
	<line class="st2" x1="250.5" y1="19.2" x2="251.6" y2="18.1"/>
</g>
<line class="st2" x1="210.6" y1="19.2" x2="222.8" y2="7"/>
<line class="st2" x1="212" y1="19.2" x2="224.1" y2="7"/>
<line class="st2" x1="210.6" y1="8.2" x2="211.8" y2="7"/>
<line class="st2" x1="210.5" y1="11" x2="214.5" y2="7"/>
<line class="st2" x1="210.6" y1="13.7" x2="217.3" y2="7"/>
<line class="st2" x1="210.6" y1="9.5" x2="213.1" y2="7"/>
<line class="st2" x1="210.6" y1="12.3" x2="215.9" y2="7"/>
<line class="st2" x1="210.6" y1="15.1" x2="218.6" y2="7"/>
<line class="st2" x1="210.6" y1="16.5" x2="220" y2="7"/>
<line class="st2" x1="210.6" y1="17.8" x2="221.4" y2="7"/>
<g>
	<rect x="251.6" y="7.1" class="st3" width="0.3" height="16.7"/>
</g>
<polyline class="st4" points="261.1,2.9 261.1,23.7 274.9,23.7 "/>
<line class="st4" x1="252.1" y1="54.4" x2="274.9" y2="54.4"/>
<line class="st4" x1="252.1" y1="55.7" x2="274.9" y2="55.7"/>
<line class="st4" x1="252.1" y1="57.1" x2="274.9" y2="57.1"/>
<line class="st4" x1="252.1" y1="58.5" x2="274.9" y2="58.5"/>
<line class="st4" x1="252.1" y1="59.9" x2="274.9" y2="59.9"/>
<line class="st4" x1="252.1" y1="61.3" x2="274.9" y2="61.3"/>
<line class="st4" x1="252.1" y1="62.6" x2="274.9" y2="62.6"/>
<line class="st4" x1="252.1" y1="64" x2="274.9" y2="64"/>
<line class="st4" x1="252.1" y1="65.4" x2="274.9" y2="65.4"/>
<line class="st4" x1="252.1" y1="66.8" x2="274.9" y2="66.8"/>
<line class="st4" x1="252.1" y1="68.1" x2="274.9" y2="68.1"/>
<line class="st4" x1="252.1" y1="69.5" x2="274.9" y2="69.5"/>
<line class="st4" x1="252.1" y1="70.9" x2="274.9" y2="70.9"/>
<line class="st4" x1="252.1" y1="72.3" x2="274.9" y2="72.3"/>
<line class="st4" x1="263.4" y1="54.4" x2="263.4" y2="72.3"/>
<line class="st4" x1="33.7" y1="2.9" x2="33.7" y2="24.1"/>
<line class="st4" x1="32.3" y1="2.9" x2="32.3" y2="24.1"/>
<line class="st4" x1="31" y1="2.9" x2="31" y2="24.1"/>
<line class="st4" x1="29.6" y1="2.9" x2="29.6" y2="24.1"/>
<line class="st4" x1="28.2" y1="2.9" x2="28.2" y2="24.1"/>
<line class="st4" x1="26.8" y1="2.9" x2="26.8" y2="24.1"/>
<line class="st4" x1="25.5" y1="2.9" x2="25.5" y2="24.1"/>
<line class="st4" x1="24.1" y1="2.9" x2="24.1" y2="24.1"/>
<line class="st4" x1="22.7" y1="2.9" x2="22.7" y2="24.1"/>
<line class="st4" x1="21.3" y1="2.9" x2="21.3" y2="24.1"/>
<line class="st4" x1="20" y1="2.9" x2="20" y2="24.1"/>
<line class="st4" x1="18.6" y1="2.9" x2="18.6" y2="24.1"/>
<line class="st4" x1="17.2" y1="2.9" x2="17.2" y2="24.1"/>
<polyline class="st4" points="15.8,2.9 15.8,13.5 15.8,24.1 "/>
<line class="st4" x1="33.7" y1="13.5" x2="15.8" y2="13.5"/>
<g>
	<rect x="251.9" y="36.6" class="st3" width="0.3" height="45.7"/>
</g>
<path class="st5" d="M181.3,7"/>
<polyline class="st4" points="1.8,35.5 168.8,35.5 168.8,51.7 168.8,82.3 "/>
<polyline class="st4" points="181.2,7 181.2,23.6 181.2,24.1 46.5,24.1 1.8,24.1 "/>
<line class="st4" x1="46.5" y1="24.1" x2="46.5" y2="2.9"/>
<line class="st4" x1="81" y1="24.1" x2="81" y2="2.9"/>
<line class="st4" x1="116.4" y1="24.1" x2="116.4" y2="2.9"/>
<line class="st4" x1="152.8" y1="24.1" x2="152.8" y2="2.9"/>
<g>
	<path class="st6" d="M207.6,51.8v30.1H169V51.8H207.6 M208,51.4h-39.4v30.9H208V51.4L208,51.4z"/>
</g>
<line class="st4" x1="208" y1="54.4" x2="252.1" y2="54.4"/>
<polyline class="st4" points="181.2,24.1 210.7,24.1 210.7,7 "/>
<line class="st4" x1="210.7" y1="19.2" x2="251.6" y2="19.2"/>
<line class="st4" x1="306.8" y1="16.8" x2="306.8" y2="2.2"/>
<line class="st4" x1="308.2" y1="16.8" x2="308.2" y2="2.2"/>
<line class="st4" x1="309.6" y1="16.8" x2="309.6" y2="2.2"/>
<line class="st4" x1="311" y1="16.8" x2="311" y2="2.2"/>
<line class="st4" x1="312.3" y1="16.8" x2="312.3" y2="2.2"/>
<line class="st4" x1="313.7" y1="16.8" x2="313.7" y2="2.2"/>
<line class="st4" x1="315.1" y1="16.8" x2="315.1" y2="2.2"/>
<line class="st4" x1="316.5" y1="16.8" x2="316.5" y2="2.2"/>
<line class="st4" x1="317.8" y1="16.8" x2="317.8" y2="2.2"/>
<line class="st4" x1="319.2" y1="16.8" x2="319.2" y2="2.2"/>
<line class="st4" x1="320.6" y1="16.8" x2="320.6" y2="2.2"/>
<line class="st4" x1="322" y1="16.8" x2="322" y2="2.2"/>
<line class="st4" x1="323.3" y1="16.8" x2="323.3" y2="2.2"/>
<line class="st4" x1="324.7" y1="16.8" x2="324.7" y2="2.2"/>
<polygon class="st7" points="166,82.3 252,82.3 252,90.2 274.9,90.2 274.9,2.9 251.6,2.9 251.6,7 181.3,7 181.3,2.9 1.8,2.9 
	1.8,89.6 166,89.6 166,82.7 "/>
<polyline class="st4" points="369.6,7.1 369.6,29.4 460.2,29.4 "/>
<line class="st4" x1="391.3" y1="7.1" x2="391.3" y2="29.4"/>
<line class="st4" x1="413.9" y1="7.1" x2="413.9" y2="29.4"/>
<polyline class="st4" points="435.4,90.2 435.4,41.4 370.6,41.4 370.6,90.2 "/>
<line class="st4" x1="296.7" y1="41.4" x2="370.6" y2="41.4"/>
<line class="st4" x1="435.4" y1="41.4" x2="460.2" y2="41.4"/>
<polyline class="st4" points="296.7,16.7 338.7,16.7 338.7,2 "/>
<polyline class="st7" points="274.9,41.5 296.7,41.5 296.7,90.2 460.2,90.2 460.2,7.1 367.5,7.1 367.5,2 296.7,2 296.7,23.7 
	274.9,23.7 "/>
<rect x="271" y="23.9" class="st8" width="5.8" height="17.5"/>
</svg>
